<?xml version="1.0" standalone="no"?>
<!DOCTYPE svg PUBLIC "-//W3C//DTD SVG 1.1//EN" "http://www.w3.org/Graphics/SVG/1.1/DTD/svg11.dtd" >
<svg xmlns="http://www.w3.org/2000/svg" xmlns:xlink="http://www.w3.org/1999/xlink" version="1.1">
<metadata></metadata>
<defs>
<font id="cs_prajadbolditalic" horiz-adv-x="0" >
<font-face units-per-em="1200" ascent="960" descent="-240" />
<missing-glyph horiz-adv-x="360" />
<glyph unicode=" "  horiz-adv-x="360" />
<glyph unicode="&#x09;" horiz-adv-x="360" />
<glyph unicode="&#xa0;" horiz-adv-x="360" />
<glyph unicode="!" horiz-adv-x="307" d="M183 69q-7 -29 -33 -49t-57 -20t-47.5 20t-9.5 49t32.5 49t56.5 20t48 -20t10 -49zM338 822l-143 -617h-109l143 617h109z" />
<glyph unicode="&#x22;" horiz-adv-x="391" d="M438 810l-63 -229h-66l43 229h86zM293 810l-63 -229h-66l43 229h86z" />
<glyph unicode="#" horiz-adv-x="762" d="M772 562l-37 -86h-127l-64 -147h126l-36 -86h-128l-103 -243h-101l104 243h-124q-39 -91 -103 -243h-101l104 243h-126l37 86h126l63 147h-126l38 86h126l98 231h101l-99 -231h125l98 231h101l-99 -231h127zM383 476l-63 -147h123l64 147h-124z" />
<glyph unicode="$" horiz-adv-x="737" d="M340 -115h-97l23 98q-97 11 -148 82t-39 190l108 14q-19 -173 100 -196l70 302q-18 6 -32.5 11t-32.5 12.5t-31 14.5t-28 17.5t-25 21.5t-18.5 26t-12 31t-3.5 36.5t5 42.5q16 70 60.5 120.5t99.5 76t120 33.5l22 96h97l-22 -96q86 -13 129 -78.5t28 -174.5l-105 -13 q17 150 -73 174l-66 -284q19 -6 33.5 -11t33 -13t32 -15.5t28 -18.5t24.5 -22.5t18.5 -26.5t12 -32t3 -38t-5.5 -44q-24 -102 -103.5 -161.5t-180.5 -73.5zM282 588q-11 -48 16.5 -74t80.5 -44l59 257q-62 -11 -102.5 -47.5t-53.5 -91.5zM443 750l22 -20q-15 0 -27 -3z M448 349l-63 -272q57 13 101.5 49t57.5 95q20 87 -96 128zM379 53l-22 19q1 0 28 5z" />
<glyph unicode="%" horiz-adv-x="739" d="M100 -21l-74 47l679 799l74 -47zM296 488q-64 0 -98.5 47.5t-19.5 115.5q16 67 72.5 114.5t120.5 47.5t98 -47.5t18 -114.5q-15 -68 -71 -115.5t-120 -47.5zM349 720q-23 0 -44 -20.5t-28 -48.5q-7 -29 5 -49.5t35 -20.5t43.5 20.5t27.5 49.5t-4.5 49t-34.5 20zM438 -11 q-64 0 -98 48t-18 115q16 68 72 116t120 48t98.5 -48t18.5 -116t-72.5 -115.5t-120.5 -47.5zM492 221q-23 0 -43.5 -20.5t-27.5 -48.5q-6 -28 5.5 -48t33.5 -20q23 0 44.5 20t27.5 48q7 28 -5 48.5t-35 20.5z" />
<glyph unicode="&#x26;" horiz-adv-x="838" d="M750 50l-76 -71q-54 49 -105 114q-113 -103 -240 -103q-53 0 -100 13t-84 39t-52.5 72t-1.5 106q10 43 35.5 79.5t71 70.5t76 52t88.5 50q-62 100 -46 171q17 74 81.5 120.5t134.5 46.5q71 0 117 -43.5t30 -111.5q-25 -107 -182 -204l96 -187q29 49 56 116l97 -13 q-39 -102 -106 -193q65 -84 110 -124zM190 220q-9 -40 3 -69t39 -43.5t56 -21t61 -6.5q83 0 174 88l-119 232l-27 -14q-39 -21 -60.5 -34t-53 -35.5t-49.5 -46.5t-24 -50zM580 655q7 30 -16 48t-53 18q-29 0 -58 -19.5t-36 -51.5q-10 -44 38 -124q112 68 125 129z" />
<glyph unicode="'" horiz-adv-x="246" d="M293 810l-63 -229h-66l43 229h86z" />
<glyph unicode="(" horiz-adv-x="342" d="M143 -150q-92 239 -32 499q59 256 264 498l72 -44q-66 -78 -130.5 -197.5t-96.5 -256.5q-22 -95 -22.5 -190t11 -155.5t29.5 -108.5z" />
<glyph unicode=")" horiz-adv-x="390" d="M293 870q94 -236 33 -499q-58 -252 -264 -498l-73 44q66 79 131 198t97 256q22 95 22.5 190t-11 155.5t-30.5 108.5z" />
<glyph unicode="*" horiz-adv-x="482" d="M447 540l-81 -51l-50 95l-93 -95l-54 53l90 93q-12 4 -34.5 12t-40 14t-30.5 10l42 77l106 -37l27 117h88l-27 -117l122 37l6 -77l-122 -36q23 -45 51 -95z" />
<glyph unicode="+" horiz-adv-x="576" d="M520 366l-19 -86h-161l-37 -159h-95l37 159h-160l19 86h160l37 159h95l-37 -159h161z" />
<glyph unicode="," horiz-adv-x="341" d="M180 103q8 -22 1 -57q-10 -42 -49.5 -84.5t-99.5 -69.5l2 28q19 14 35 34.5t23.5 34t5.5 13.5q-29 0 -44 19.5t-8 48.5q7 28 31 47t52 19q38 0 51 -33z" />
<glyph unicode="-" horiz-adv-x="589" d="M444 283h-359l16 70h359zM530 353l-16 -70h-387l16 70h387z" />
<glyph unicode="." horiz-adv-x="295" d="M118 131q25 0 41.5 -20.5t10.5 -46.5q-7 -27 -32.5 -47.5t-50.5 -20.5q-27 0 -43 20.5t-9 47.5q6 26 31.5 46.5t51.5 20.5z" />
<glyph unicode="/" horiz-adv-x="486" d="M64 -26l-82 36l501 800l82 -35z" />
<glyph unicode="0" horiz-adv-x="750" d="M313 -11h-2q-82 3 -134 36.5t-71 91.5t-18 127t21 153q15 67 36.5 124t55 111t75 92t99.5 60.5t126 22.5q67 0 114.5 -23t71.5 -61t33 -92t4.5 -111t-19.5 -123q-20 -83 -50.5 -151.5t-76.5 -127.5t-113.5 -92.5t-151.5 -36.5zM481 719q-201 -2 -275 -322 q-74 -322 126 -322t276 322q73 321 -127 322z" />
<glyph unicode="1" horiz-adv-x="566" d="M194 585l-20 80q59 24 119.5 59t88 54t31.5 23h85l-185 -801h-97l156 674q-81 -49 -178 -89z" />
<glyph unicode="2" horiz-adv-x="750" d="M632 89l-21 -88h-592l17 74q23 100 138 186q58 42 209 116q61 29 94 47t76 46t65.5 57t30.5 62q17 71 -34.5 103t-138.5 32q-78 0 -137.5 -41.5t-78.5 -122.5h-97q28 121 120.5 186t212.5 65q56 0 104.5 -12t87.5 -37t56 -69.5t3 -103.5q-7 -29 -22 -56.5t-31.5 -48.5 t-46.5 -45t-50.5 -38.5t-60.5 -36.5t-60 -32l-64 -32q-136 -67 -189 -105q-66 -46 -86 -106h495z" />
<glyph unicode="3" horiz-adv-x="750" d="M313 -9q-127 0 -195 70t-41 197h97q-19 -88 27.5 -134t131.5 -46t152.5 41.5t85.5 119.5q18 77 -30.5 119.5t-133.5 40.5h-68l20 87h67q175 8 201 120q13 58 -31 87t-114 29q-71 0 -127 -32.5t-76 -102.5h-97q29 109 119 166t201 57q51 0 95 -12.5t77 -36.5t47 -64t2 -91 q-11 -48 -45.5 -91.5t-83.5 -70.5q49 -33 69 -86.5t5 -118.5q-27 -116 -129 -182t-226 -66z" />
<glyph unicode="4" horiz-adv-x="750" d="M554 153l-35 -153h-95l35 153h-406l17 73l546 572h87l-129 -558h93l-20 -87h-93zM199 240h280l90 386z" />
<glyph unicode="5" horiz-adv-x="677" d="M282 -11q-213 0 -243 175l96 33q14 -66 55.5 -94t111.5 -28q202 0 245 190q21 94 -19.5 141t-137.5 47q-155 0 -215 -95l-99 -12l153 452h494l-20 -88h-405q-9 -26 -33.5 -93t-39.5 -116q78 39 185 39q139 0 201.5 -72t32.5 -203t-125.5 -203.5t-236.5 -72.5z" />
<glyph unicode="6" horiz-adv-x="751" d="M327 -10q-106 2 -163.5 55.5t-64.5 143.5t18 210q43 186 141.5 298t251.5 112q97 0 154 -55t68 -160l-97 -30q-17 157 -146 157q-185 0 -263 -276q96 78 224 78q120 0 180.5 -76t34.5 -190q-27 -120 -123 -193.5t-215 -73.5zM430 436q-79 0 -142 -50.5t-81 -128.5 q-18 -79 23 -129.5t117 -50.5q78 0 140.5 51t80.5 129q18 80 -22 129.5t-116 49.5z" />
<glyph unicode="7" horiz-adv-x="750" d="M271 -10l-91 20q4 16 11 31v-1q59 122 125 230q160 256 335 442h-469l21 88h594l-17 -74q-205 -208 -381 -487q-36 -57 -68 -119.5t-46 -95t-14 -34.5z" />
<glyph unicode="8" horiz-adv-x="750" d="M313 -10q-126 0 -197 65t-44 182q15 63 61 118t109 88q-36 28 -51.5 70.5t-4.5 90.5q16 67 67.5 114.5t115.5 68.5t133 21q110 0 176.5 -52.5t43.5 -151.5q-24 -103 -129 -161q50 -32 70 -86.5t5 -119.5q-27 -116 -129 -181.5t-226 -65.5zM407 397q-85 0 -152.5 -41.5 t-85.5 -118.5q-18 -78 30.5 -119.5t133.5 -41.5t152.5 42t85.5 119t-30.5 118.5t-133.5 41.5zM481 720q-70 0 -127 -28.5t-71 -87.5q-13 -60 30 -88.5t114 -28.5q70 0 128 29t71 88q14 58 -30.5 87t-114.5 29z" />
<glyph unicode="9" horiz-adv-x="751" d="M489 810q106 -2 163.5 -55.5t64.5 -143.5t-18 -210q-44 -186 -142 -298t-251 -112q-98 0 -155 55t-68 160l97 30q17 -157 146 -157q184 0 264 276q-99 -78 -224 -78q-120 0 -181 76t-35 190q28 120 124 193.5t215 73.5zM386 364q79 0 141.5 50.5t80.5 128.5 q18 79 -22.5 129.5t-116.5 50.5q-79 0 -141.5 -51t-80.5 -129q-18 -80 22.5 -129.5t116.5 -49.5z" />
<glyph unicode=":" horiz-adv-x="315" d="M219 526q25 0 41.5 -20.5t10.5 -46.5t-31.5 -46.5t-51.5 -20.5t-42 20.5t-10 46.5t31.5 46.5t51.5 20.5zM128 131q25 0 41.5 -20.5t10.5 -46.5q-7 -27 -32.5 -47.5t-50.5 -20.5q-27 0 -43 20.5t-9 47.5q6 26 31.5 46.5t51.5 20.5z" />
<glyph unicode=";" horiz-adv-x="320" d="M180 103q8 -22 1 -57q-10 -42 -49.5 -84.5t-99.5 -69.5l2 28q19 14 35 34.5t23.5 34t5.5 13.5q-29 0 -44 19.5t-8 48.5q7 28 31 47t52 19q38 0 51 -33zM215 551q25 0 41.5 -20.5t10.5 -46.5q-7 -27 -32.5 -47.5t-50.5 -20.5q-27 0 -43 20.5t-9 47.5q6 26 31.5 46.5 t51.5 20.5z" />
<glyph unicode="&#x3c;" horiz-adv-x="589" d="M436 112l-349 178l16 70l431 176l16 -87l-323 -124l268 -127z" />
<glyph unicode="=" horiz-adv-x="588" d="M464 386h-355l22 94h355zM414 168h-355l21 94h355z" />
<glyph unicode="&#x3e;" horiz-adv-x="560" d="M152 528l349 -178l-16 -70l-431 -176l-16 87l323 124l-268 127z" />
<glyph unicode="?" horiz-adv-x="628" d="M349 207h-95q23 141 186 297q111 102 132 188q12 55 -31 85.5t-101 30.5q-152 0 -194 -185h-102q30 132 111.5 202t204.5 70q99 0 164 -55t44 -148q-12 -51 -41.5 -99.5t-56 -77t-69.5 -67.5q-58 -55 -96 -109t-56 -132zM343 69q-7 -29 -32.5 -49t-56.5 -20t-48 20 t-10 49t33 49t57 20t47.5 -20t9.5 -49z" />
<glyph unicode="@" horiz-adv-x="1145" d="M933 609l-174 -468q-6 -13 7 -19.5t34 -6.5q33 0 60 15q42 27 77 85.5t48 115.5q19 87 4 162t-58 132q-89 112 -243 112q-107 0 -212.5 -55t-182 -148.5t-101.5 -202.5t8 -202.5t113.5 -148.5t187.5 -55q128 0 264 76l32 -76q-157 -88 -317 -88q-135 0 -234.5 69 t-139.5 182.5t-10 242.5q31 134 126 248t225 180t261 66q136 0 233 -69.5t133.5 -182.5t6.5 -242q-19 -85 -65.5 -159.5t-118.5 -115.5q-52 -29 -117 -29q-98 0 -118 64q-88 -65 -193 -65q-113 0 -149.5 69t-12.5 175q9 33 21 67q47 130 139 215t216 85q91 0 141 -55l17 41z M663 550q-83 0 -145.5 -66t-96.5 -159q-12 -32 -18 -58q-36 -155 86 -155q84 0 144.5 65t97.5 160q13 36 18 59q36 154 -86 154z" />
<glyph unicode="A" horiz-adv-x="782" d="M214 233l-158 -252l-82 35l491 783h102l129 -783l-99 -35l-41 252h-342zM486 664l-214 -341h269z" />
<glyph unicode="B" horiz-adv-x="798" d="M358 0h-318l185 800h292q123 0 187.5 -51.5t38.5 -165.5q-25 -106 -106 -159q51 -27 69.5 -79t3.5 -119q-52 -226 -352 -226zM224 367l-64 -277h219q103 0 158 27.5t74 108.5q10 43 -0.5 72.5t-39.5 43.5t-61 19.5t-75 5.5h-211zM245 460h200q170 0 199 123 q16 71 -25.5 99t-122.5 28h-193z" />
<glyph unicode="C" horiz-adv-x="829" d="M406 -18q-91 0 -157.5 34.5t-98 91.5t-41.5 131t11 152q19 84 61 160t102 136.5t142 96.5t174 36q103 0 163.5 -44t92.5 -129l-91 -61q-23 71 -66 107.5t-119 36.5q-136 0 -231.5 -99t-128.5 -240q-16 -61 -10 -118.5t28 -102.5t71 -72t118 -27q76 0 135.5 32t118.5 96 l61 -59q-72 -79 -152.5 -118.5t-182.5 -39.5z" />
<glyph unicode="D" horiz-adv-x="787" d="M311 0h-271l185 800h271q93 0 154.5 -31.5t87 -86t29.5 -127.5t-18 -155q-20 -85 -54.5 -155t-87 -126t-128 -87.5t-168.5 -31.5zM160 90h172q248 0 318 310q73 310 -175 310h-172z" />
<glyph unicode="E" horiz-adv-x="733" d="M647 447l-21 -90h-405l-61 -267h464l-21 -90h-563l185 800l543 -1l-20 -89h-445l-61 -263h405z" />
<glyph unicode="F" horiz-adv-x="684" d="M647 448l-20 -90h-405l-83 -357h-99l185 800l544 -1l-21 -90h-445l-61 -262h405z" />
<glyph unicode="G" horiz-adv-x="865" d="M818 447l-103 -447h-99l12 50q-51 -36 -101.5 -52.5t-120.5 -16.5q-73 0 -131 23t-92 63t-54.5 93t-20 114t13.5 126q19 83 59 156.5t99 133.5t141.5 95t177.5 35q104 0 165 -42t94 -123l-91 -60q-23 66 -67 100.5t-121 34.5q-135 0 -230.5 -96.5t-127.5 -233.5 q-17 -63 -10 -122.5t30 -105.5t71 -74t114 -28q119 0 232 111l40 176h-232l21 90h331z" />
<glyph unicode="H" horiz-adv-x="821" d="M846 800l-185 -800h-99l82 357h-423l-82 -357h-99l185 800h99l-82 -353h423l82 353h99z" />
<glyph unicode="I" horiz-adv-x="339" d="M344 800l-185 -800h-99l185 800h99z" />
<glyph unicode="J" horiz-adv-x="598" d="M188 -18q-92 0 -144.5 56t-28.5 157h99q-13 -57 14.5 -90.5t79.5 -33.5q57 0 99 28.5t54 80.5l143 620h99l-143 -620q-22 -95 -97.5 -146.5t-174.5 -51.5z" />
<glyph unicode="K" horiz-adv-x="758" d="M668 44l-86 -64l-259 398q-8 -6 -51 -40.5t-67 -53.5l-66 -284h-99l185 800h99l-90 -387q98 77 288 226t227 178l48 -67l-388 -306z" />
<glyph unicode="L" horiz-adv-x="624" d="M565 90l-21 -90h-504l185 800h100l-164 -710h404z" />
<glyph unicode="M" horiz-adv-x="944" d="M969 800l-185 -800h-99l134 582l-353 -559h-100l-93 559l-134 -582h-99l185 800h117l105 -642l406 642h116z" />
<glyph unicode="N" horiz-adv-x="809" d="M834 800l-185 -800h-90l-278 615l-142 -615h-99l185 800h91l277 -615l142 615h99z" />
<glyph unicode="O" horiz-adv-x="900" d="M388 -10q-70 0 -126.5 22.5t-92 61.5t-57 91t-22 111.5t11.5 122.5q39 167 170.5 289t304.5 122q71 0 127.5 -22.5t91.5 -61.5t56.5 -91.5t22 -112t-12.5 -123.5q-25 -106 -89.5 -198t-166.5 -151.5t-218 -59.5zM556 720q-130 0 -227.5 -96t-127.5 -225q-30 -130 24 -225 t183 -95q130 0 227.5 94.5t127.5 225.5q16 60 9 118t-30 103t-71.5 72.5t-114.5 27.5z" />
<glyph unicode="P" horiz-adv-x="729" d="M425 371h-200l-86 -371h-99l185 800h294q47 0 83.5 -5.5t70.5 -20t51.5 -39t25.5 -62t-6 -89.5q-12 -52 -37 -91t-55 -62t-70 -37t-76.5 -18.5t-80.5 -4.5zM245 461h200q31 0 50 1t46.5 7.5t45 19t34 36.5t24.5 59q5 22 5.5 39.5t-4 30.5t-11.5 22.5t-19 15.5t-23.5 9.5 t-29 5.5t-31.5 2.5t-34 0.5h-195z" />
<glyph unicode="Q" horiz-adv-x="920" d="M569 730q-130 0 -228.5 -99t-129.5 -232q-17 -63 -10 -122.5t29.5 -105t71 -73.5t114.5 -28q55 0 112 21l-81 71l72 75l103 -90q115 97 151 252q17 62 10 121.5t-29 106t-70.5 75t-114.5 28.5zM395 -20q-71 0 -127.5 23t-91 63t-55.5 93.5t-21.5 114.5t12.5 125 q19 81 62 156t103.5 134t142 94.5t169.5 35.5q71 0 127.5 -23t91.5 -63t56 -93.5t21 -114.5t-13 -126q-20 -84 -69 -165.5t-117 -141.5q17 -14 48.5 -42t42.5 -38l-73 -75l-107 94q-97 -51 -202 -51z" />
<glyph unicode="R" horiz-adv-x="799" d="M698 41l-86 -65q-32 50 -36.5 107.5t6.5 101.5q16 101 -3 133l1 -1q-17 28 -50.5 41t-99.5 13h-205l-86 -371h-99l185 800h339q122 0 187 -52t39 -164q-14 -61 -52 -108t-94 -72q22 -24 26 -32l-1 1q21 -37 22 -88t-8 -92q-9 -38 -7.5 -80t22.5 -72zM245 461h206 q34 0 54 1t49 4.5t47.5 11.5t38 21t32 34.5t19.5 50.5q17 71 -25 98.5t-123 27.5h-240z" />
<glyph unicode="S" horiz-adv-x="795" d="M335 -19q-126 -2 -197 70t-59 204l102 14q-9 -98 38.5 -148.5t135.5 -50.5q53 0 103.5 14t93.5 50t55 87q6 27 -3 49t-24 35.5t-44.5 26t-49 18t-52.5 13.5l2 -1l-11 3q-119 31 -161 53q-110 58 -84 170q14 60 51 106.5t88 73t107 40t115 13.5q116 0 179.5 -66.5 t49.5 -189.5l-100 -13q9 89 -31.5 134t-118.5 45q-96 0 -161 -38.5t-80 -104.5q-6 -24 3 -44t24 -32.5t42.5 -24t47 -17t49.5 -12.5l10 -3q123 -33 168 -58q110 -60 83 -176q-14 -61 -53 -109t-92 -75.5t-110.5 -41.5t-115.5 -14z" />
<glyph unicode="T" horiz-adv-x="663" d="M757 799l-20 -89h-250l-164 -710h-99l164 710h-254l20 89h603z" />
<glyph unicode="U" horiz-adv-x="800" d="M332 -21q-141 0 -206.5 75t-36.5 201l126 545h99l-126 -545q-20 -88 23.5 -137t141.5 -49q214 0 258 193l125 538h99l-125 -538q-32 -139 -130.5 -211t-247.5 -72z" />
<glyph unicode="V" horiz-adv-x="782" d="M873 784l-493 -784h-100l-129 784l98 35l112 -683l429 683z" />
<glyph unicode="W" horiz-adv-x="1031" d="M731 0h-100l-27 620l-315 -620h-99l-38 790l101 24l30 -626q20 39 135.5 266.5t173.5 344.5h105l28 -606q34 68 142.5 287t164.5 334l91 -24z" />
<glyph unicode="X" horiz-adv-x="779" d="M697 35l-89 -58l-201 360q-38 -37 -367 -361l-62 59l384 377l-191 352l90 59l181 -334l336 334l61 -59l-354 -351q36 -65 109 -194.5t103 -183.5z" />
<glyph unicode="Y" horiz-adv-x="777" d="M460 357l-82 -357h-99l82 357l-215 406l89 59l197 -372q236 238 370 372l61 -59z" />
<glyph unicode="Z" horiz-adv-x="723" d="M624 90l-21 -90h-603l20 86l617 624h-454l21 90h584l-20 -85l-618 -625h474z" />
<glyph unicode="[" horiz-adv-x="338" d="M230 -36l-19 -80h-208l220 954h208l-18 -79h-109l-183 -795h109z" />
<glyph unicode="\" horiz-adv-x="486" d="M388 10l-98 -36l-131 801l98 35z" />
<glyph unicode="]" horiz-adv-x="338" d="M155 760l19 80h208l-220 -954h-208l18 79h109l183 795h-109z" />
<glyph unicode="^" horiz-adv-x="588" d="M123 490l265 329h72l111 -329l-106 -35l-69 247l-185 -249z" />
<glyph unicode="_" horiz-adv-x="387" d="M333 25l-17 -72h-387l17 72h387z" />
<glyph unicode="`" horiz-adv-x="401" d="M332 800l82 -181h-101l-118 181h137z" />
<glyph unicode="a" horiz-adv-x="682" d="M246 -12q-115 0 -161.5 45.5t-25.5 137.5q7 31 24.5 56.5t36.5 43t51 33t53 23.5t58.5 16.5t52.5 11t49 7.5q8 0 12 1q92 13 108 26l3 12q16 62 -16 97.5t-101 35.5q-67 0 -118 -41.5t-69 -112.5l-94 6q33 112 112 173t189 61q109 0 163 -60.5t29 -158.5l-66 -282 q-2 -12 18 -33t41 -31l-45 -73q-22 8 -55 39.5t-47 58.5q-110 -92 -202 -92zM266 74q45 0 83 18.5t62.5 48t39.5 58t22 56.5l9 41q-44 -12 -103 -19q-35 -6 -46.5 -8t-44.5 -9t-48.5 -13.5t-37 -17.5t-33 -25.5t-15.5 -32.5q-10 -46 11 -71.5t101 -25.5z" />
<glyph unicode="b" horiz-adv-x="718" d="M308 -9q-79 0 -146 78l-16 -69h-96l190 824h96l-61 -266q92 64 179 64q67 0 112.5 -25.5t64 -68.5t22 -100t-13.5 -121q-33 -139 -116.5 -227.5t-214.5 -88.5zM434 537q-85 0 -139 -65t-77 -165q-13 -64 -11.5 -115t32.5 -83t89 -32q85 0 138.5 64t77.5 166 q13 64 11.5 115t-32.5 83t-89 32z" />
<glyph unicode="c" horiz-adv-x="670" d="M300 -10q-136 0 -188.5 89t-20.5 227q32 137 125.5 226t227.5 89q157 0 209 -132l-89 -49q-40 96 -139 96q-91 0 -153 -64.5t-85 -165.5q-13 -66 -7.5 -117t42 -82t98.5 -31q100 0 182 96l66 -50q-114 -132 -268 -132z" />
<glyph unicode="d" horiz-adv-x="717" d="M285 -9q-67 0 -112.5 25.5t-64 68.5t-21.5 100.5t14 121.5q32 138 115.5 226.5t214.5 88.5q97 0 150 -64l61 267h95l-190 -825h-95l14 59q-100 -68 -181 -68zM411 537q-85 0 -138.5 -64t-77.5 -166q-13 -64 -11.5 -115t32.5 -83t89 -32q86 0 139 63.5t77 166.5 q12 61 10.5 112.5t-32 84.5t-88.5 33z" />
<glyph unicode="e" horiz-adv-x="731" d="M313 -11q-285 3 -213 316q32 138 127 227t232 89q118 0 175 -64t44 -180l-27 -115h-463q-30 -188 145 -188q68 0 119 32.5t91 103.5l83 -28q-103 -193 -313 -193zM208 348h368l5 21q7 77 -29 122t-112 45q-82 0 -142.5 -51.5t-89.5 -136.5z" />
<glyph unicode="f" horiz-adv-x="384" d="M426 609l-20 -87h-96l-121 -522h-96l121 522h-83l20 87h83l20 89q16 68 61 104q41 32 104 32q5 0 14 -0.5t13 -0.5q5 0 25.5 -0.5t24.5 -0.5l-19 -83h-40q-6 0 -15 0.5t-13 0.5q-30 0 -41 -9q-10 -9 -18 -43l-20 -89h96z" />
<glyph unicode="g" horiz-adv-x="707" d="M234 -238q-109 0 -165 53t-43 162l96 7q-15 -137 132 -137q72 0 124.5 37t70.5 103l15 66q-104 -69 -181 -64q-67 -1 -112.5 24t-63.5 69t-21 101.5t14 120.5q33 140 115.5 228t214.5 88q87 0 149 -70l12 52h95l-142 -617q-30 -107 -112.5 -165t-197.5 -58zM410 534 q-85 0 -138.5 -64t-77.5 -166q-13 -64 -11.5 -115t32.5 -83t89 -32q45 0 83 20t63.5 54.5t42.5 73t27 82.5q12 62 10.5 113t-32 84t-88.5 33z" />
<glyph unicode="h" horiz-adv-x="677" d="M414 537q-67 0 -116.5 -52t-68.5 -123l-84 -362h-95l190 825h95l-61 -265q91 63 160 63q112 0 161.5 -57t25.5 -161l-94 -405h-96l94 405q15 65 -14 98.5t-97 33.5z" />
<glyph unicode="i" horiz-adv-x="334" d="M154 0h-94l140 605h94zM311 681h-94l33 140h94z" />
<glyph unicode="j" horiz-adv-x="351" d="M55 -87l160 693h96l-160 -693q-14 -61 -58 -98.5t-107 -37.5q-21 0 -77 2l19 82l68 -1q27 0 39 11.5t20 41.5zM360 821l-33 -140h-95l33 140h95z" />
<glyph unicode="k" horiz-adv-x="627" d="M545 36l-83 -60l-190 293l-78 -61l-48 -208h-96l190 825h96l-113 -492q349 273 370 290l48 -64l-288 -226q32 -50 98 -151.5t94 -145.5z" />
<glyph unicode="l" horiz-adv-x="355" d="M356 828l-191 -828h-95l191 828h95z" />
<glyph unicode="m" horiz-adv-x="965" d="M908 404l-93 -404h-94l93 404q14 59 -11.5 96t-87.5 37q-58 0 -102 -52.5t-60 -120.5l-84 -364h-96l103 447q21 90 -76 90q-65 0 -115.5 -52.5t-64.5 -120.5l-84 -364h-96l139 601h96l-10 -42q91 64 161 64q106 0 138 -85q92 85 177 85q101 0 145 -61.5t22 -157.5z" />
<glyph unicode="n" horiz-adv-x="666" d="M404 537q-68 0 -119 -52t-67 -123l-84 -362h-94l139 600h94l-12 -50q97 68 162 68q111 0 160.5 -55.5t26.5 -157.5l-94 -405h-96l94 405q30 132 -110 132z" />
<glyph unicode="o" horiz-adv-x="702" d="M289 -12q-135 -1 -188 88.5t-21 227.5q32 137 125 226.5t228 89.5t188 -88.5t21 -227.5q-32 -138 -125.5 -227.5t-227.5 -88.5zM414 535q-92 -1 -153.5 -65t-85.5 -166t8.5 -166t125.5 -64t153 63.5t84 166.5q24 104 -7 167t-125 64z" />
<glyph unicode="p" horiz-adv-x="707" d="M441 609q67 0 112 -25.5t64 -68.5t22 -100.5t-14 -121.5q-33 -139 -116 -227t-214 -88q-97 0 -150 64l-62 -267h-95l191 825h95l-14 -59q98 68 181 68zM315 63q85 0 138.5 64t77.5 166q12 64 10.5 115t-32 83t-88.5 32q-86 0 -139.5 -64t-76.5 -166q-12 -61 -11 -112.5 t32 -84.5t89 -33z" />
<glyph unicode="q" horiz-adv-x="708" d="M429 609q77 0 146 -78l16 69h96l-191 -824h-96l62 266q-94 -64 -179 -64q-67 0 -112.5 25.5t-64.5 68.5t-22 100t14 121q32 139 116 227.5t215 88.5zM303 63q85 0 138.5 65t77.5 165q12 64 11 115t-32 83t-89 32q-85 0 -139 -64t-77 -166q-13 -64 -11.5 -115t32.5 -83 t89 -32z" />
<glyph unicode="r" horiz-adv-x="458" d="M233 340l-78 -340h-95l139 601h95l-15 -62q7 5 26.5 19t30 21t28.5 16t36.5 13t38.5 4q16 0 60 -2l-26 -89q-9 0 -23.5 1t-25.5 2t-14 1q-69 0 -114 -54t-63 -131z" />
<glyph unicode="s" horiz-adv-x="656" d="M266 -9q-102 1 -155 56t-45 154l97 13q-5 -68 28.5 -103t95.5 -35q64 0 113 24.5t60 71.5q4 17 -2.5 31.5t-16 23.5t-30.5 17.5t-32.5 12.5t-35.5 10l1 -1q-2 0 -5.5 1.5t-7.5 2.5q-38 10 -59.5 16.5t-54.5 21.5t-49 31.5t-25.5 44.5t-1.5 62q21 89 101 132.5t180 43.5 q94 0 142.5 -52t38.5 -144l-96 -12q5 61 -23 92t-82 31q-60 0 -107.5 -21.5t-58.5 -69.5q-8 -35 23 -53t108 -38q104 -31 141 -57q66 -46 48 -126q-20 -86 -107.5 -134.5t-182.5 -46.5z" />
<glyph unicode="t" horiz-adv-x="443" d="M428 625l-20 -87h-87l-93 -403q-6 -27 6.5 -39.5t56.5 -12.5h41l-19 -82q-5 0 -25.5 -0.5t-24.5 -0.5q-80 0 -111.5 26.5t-18.5 108.5l93 403h-92l20 87h92l46 199h95l-46 -199h87z" />
<glyph unicode="u" horiz-adv-x="666" d="M281 63q68 0 119 52t67 123l84 362h94l-139 -600h-94l12 50q-97 -68 -162 -68q-111 0 -161 55.5t-26 157.5l94 405h96l-94 -405q-30 -132 110 -132z" />
<glyph unicode="v" horiz-adv-x="622" d="M296 0h-91l-99 588l96 34l74 -512l313 512l79 -34z" />
<glyph unicode="w" horiz-adv-x="829" d="M569 0h-91l-20 433l-219 -433h-91l-31 592l95 24l17 -459q35 69 111 223t110 220h96l12 -442l222 458l86 -23z" />
<glyph unicode="x" horiz-adv-x="618" d="M536 33l-86 -56l-144 272l-268 -272l-60 56l284 279q-17 31 -67 122.5t-74 136.5l86 56l129 -251l245 251l61 -56l-262 -259z" />
<glyph unicode="y" horiz-adv-x="634" d="M-33 -218l20 86q51 -3 71 -3q30 0 51 12.5t42 46.5q9 14 29.5 46.5t32.5 51.5l-97 566l95 35l79 -485q47 74 149 240.5t152 244.5l79 -35l-438 -698q-40 -63 -86 -87.5t-107 -24.5q-18 0 -72 4z" />
<glyph unicode="z" horiz-adv-x="579" d="M479 86l-20 -86h-459l17 72l447 452h-343l20 87h459l-17 -73l-447 -452h343z" />
<glyph unicode="{" horiz-adv-x="483" d="M335 -34l-21 -91q-98 3 -153.5 50.5t-33.5 143.5q3 13 11 39.5t13.5 47.5t11 48t5 47.5t-6.5 38.5t-22.5 28t-42.5 10l14 64q31 1 54.5 15t37 33t24.5 50t15.5 54t10.5 57.5t9 49.5q22 96 95.5 142.5t181.5 50.5l-21 -90q-51 0 -95.5 -18.5t-52.5 -55.5 q-34 -161 -60.5 -225t-71.5 -95q27 -29 31.5 -71t-4.5 -78t-24 -89.5t-19 -84.5q-9 -36 28 -53.5t86 -17.5z" />
<glyph unicode="|" horiz-adv-x="346" d="M346 800l-212 -915h-96l212 915h96z" />
<glyph unicode="}" horiz-adv-x="390" d="M101 754l21 91q98 -3 153.5 -50.5t33.5 -143.5q-3 -13 -11 -39.5t-13.5 -47.5t-11 -48t-5 -47.5t6.5 -38.5t22.5 -28t42.5 -10l-14 -64q-31 -1 -54.5 -15t-37 -33t-24 -50t-15 -54.5t-10.5 -57.5t-10 -49q-42 -184 -277 -193l21 90q51 0 95.5 18.5t52.5 55.5 q34 160 61 224.5t71 95.5q-27 29 -31.5 71t4.5 78t24.5 89.5t19.5 84.5q8 36 -29 53.5t-86 17.5z" />
<glyph unicode="~" horiz-adv-x="606" d="M247 418q37 0 93 -24.5t78 -24.5q32 0 67 52l71 -30q-63 -102 -146 -107q-40 -2 -98 22.5t-85 24.5q-36 0 -64 -54l-72 31q65 110 156 110z" />
<glyph unicode="&#xe01;" horiz-adv-x="684" d="M248 403l-141 19q3 8 10 21.5t33 48t58.5 61t90 48t124.5 21.5q65 0 110.5 -18t65.5 -43t28.5 -55t8 -49t-3.5 -31l-98 -426h-104l98 425q3 10 4 22.5t-3.5 32.5t-15.5 36t-38 27.5t-66 11.5q-69 0 -118 -33.5t-60 -63.5l103 -18l-11 -47q-3 -1 -9 -3.5t-21.5 -12 t-28.5 -21.5t-26 -32t-18 -44l-65 -280h-103l61 264q6 25 22 48.5t34.5 39.5t36.5 28t30 18z" />
<glyph unicode="&#xe02;" horiz-adv-x="668" d="M553 603h104l-120 -520q-6 -24 -15 -40t-18 -24.5t-28.5 -12.5t-33 -4.5t-44.5 -0.5h-207l66 286q3 11 132 195q-9 28 -40 50.5t-59 22.5q-14 0 -30 -6q30 -13 43.5 -43t4.5 -67q-11 -49 -54.5 -84t-92.5 -35t-74.5 35.5t-14.5 85.5q16 72 83.5 122t148.5 50 q65 0 106 -35.5t53 -85.5q-14 -17 -46.5 -76.5t-46.5 -92.5l-61 -263h103q6 0 9 1t6.5 6t5.5 16zM175 382q25 0 45.5 16.5t25.5 40.5q6 24 -6.5 41t-37.5 17q-23 0 -44 -17t-27 -41q-5 -24 8 -40.5t36 -16.5z" />
<glyph unicode="&#xe03;" horiz-adv-x="675" d="M560 602h104l-120 -520q-6 -24 -15 -40t-18.5 -24.5t-28.5 -12.5t-33 -4.5t-45 -0.5h-204l62 270q2 7 22 36t41.5 59t44 60t24.5 33q9 13 -2.5 51.5t-24.5 47.5l-73 -39l-65 42q-29 -20 -46 -40q13 3 27 3q50 0 76.5 -35t14.5 -84q-11 -49 -54 -84t-92 -35t-75.5 35 t-15.5 84q32 149 173 217l67 -50q12 7 40 24.5t41 24.5q41 -15 63.5 -43t24 -54.5t-1.5 -50.5q-79 -125 -96 -166l-57 -247h100q7 0 10 1t6.5 6t5.5 16zM196 462q-23 0 -44 -17t-27 -41q-5 -24 8 -40.5t36 -16.5q24 0 45 16.5t26 40.5q6 24 -7 41t-37 17z" />
<glyph unicode="&#xe04;" horiz-adv-x="702" d="M437 622q48 0 86 -11t60.5 -28.5t39.5 -39t22 -43.5t7.5 -42t-2.5 -34l-98 -424h-104l98 423q7 30 0.5 58.5t-38 51.5t-87.5 23q-80 0 -129 -42t-60 -91l-49 -212q31 89 99 193q49 63 119 63q50 0 76.5 -35t14.5 -84q-11 -49 -54 -84t-92 -35q-56 0 -82 45 q-92 -169 -125 -252l-5 -22h-104l98 423q6 24 27 55t57.5 65t96 56.5t128.5 22.5zM387 406q-23 0 -44 -17t-27 -41q-5 -24 8 -40.5t36 -16.5q24 0 45 16.5t26 40.5q6 24 -7 41t-37 17z" />
<glyph unicode="&#xe05;" horiz-adv-x="702" d="M134 0h-104l97 419q4 19 12.5 39.5t27.5 48t44 50t65 42t89 27.5l57 -55l85 54q46 -7 78 -26.5t46 -41.5t19.5 -49.5t4 -47.5t-5.5 -39l-97 -421h-104l97 419q5 22 6.5 36.5t0 35t-13.5 35t-34 23.5l-99 -50l-74 47q-22 -7 -39.5 -19t-26.5 -22.5t-17 -29t-10.5 -28 t-6.5 -28.5l-51 -218q39 104 102 203q49 63 119 63q50 0 76.5 -35t14.5 -84q-11 -49 -54 -84t-92 -35q-56 0 -82 45q-92 -169 -125 -252zM387 406q-23 0 -44 -17t-27 -41q-5 -24 8 -40.5t36 -16.5q24 0 45 16.5t26 40.5q6 24 -7 41t-37 17z" />
<glyph unicode="&#xe06;" horiz-adv-x="777" d="M216 60l33 142q-25 1 -50 -20.5t-33 -60.5q-8 -40 6.5 -60.5t37.5 -20.5q1 0 6 20zM376 306l-11 -47q60 -14 107 -68t70 -111l121 522h103l-123 -532q-7 -32 -19 -49t-41.5 -26.5t-82.5 -8.5q-11 57 -55 123t-94 90l-33 -141q-8 -36 -43 -54t-78 -18q-59 0 -81.5 37.5 t-13.5 94.5q10 62 53.5 100.5t106.5 43.5l7 28q2 8 61 82.5t64 85.5q7 15 -4 53t-23 46l-73 -39l-65 42q-29 -20 -46 -40q13 3 27 3q50 0 76.5 -35t14.5 -84q-11 -49 -54 -84t-92 -35q-48 0 -74.5 35t-16.5 84q32 149 173 217l67 -50q12 7 40 24.5t41 24.5q41 -15 63.5 -43 t24 -54.5t-1.5 -50.5q-78 -125 -95 -166zM196 462q-23 0 -44 -17t-27 -41q-5 -24 8 -40.5t36 -16.5q24 0 45 16.5t26 40.5q6 24 -7 41t-37 17z" />
<glyph unicode="&#xe07;" horiz-adv-x="548" d="M502 493l-95 -411q-6 -24 -15 -40t-18 -24.5t-28.5 -12.5t-33 -4.5t-44.5 -0.5h-29q-95 221 -184 368l58 51q36 -55 82.5 -143.5t74.5 -149.5l29 -61l72 311q-5 -1 -15 -1q-49 0 -76 34.5t-16 83.5q11 50 54 84.5t92 34.5t76 -35t16 -84zM325 493q-5 -23 8 -40t37 -17 t44.5 17t25.5 40q5 24 -7.5 41t-36.5 17t-45 -17t-26 -41z" />
<glyph unicode="&#xe08;" horiz-adv-x="618" d="M338 1l-31 222q-33 -26 -73 -30t-70 15q-37 25 -39 72.5t32 89.5q35 43 85 55.5t88 -12.5q33 -21 38 -62l24 -233l71 305q2 17 3 35t-6.5 35.5t-20 31.5t-36.5 22.5t-57 8.5q-71 0 -120.5 -34t-69.5 -81l-68 25q29 61 99 108.5t175 47.5q47 0 84.5 -11t59 -28t37.5 -39 t20 -44t6 -42.5t-3 -34.5l-79 -340q-6 -24 -15.5 -40t-19 -24.5t-30.5 -12.5t-36 -4.5t-48 -0.5zM207 261q18 -12 42 -5.5t40 26.5q17 21 17 44t-19 35q-18 12 -42 5.5t-42 -27.5q-16 -20 -15 -43t19 -35z" />
<glyph unicode="&#xe09;" horiz-adv-x="665" d="M622 424l-38 -164q-3 -14 -50 -40q30 -14 43 -43.5t4 -66.5q-11 -49 -54 -84t-92 -35t-75.5 35t-15.5 84l2 9q-42 -20 -71.5 -49.5t-38.5 -49.5l-9 -20h-103l37 159q-6 -1 -16 -1q-49 0 -75.5 34.5t-15.5 83.5q11 50 54 84.5t92 34.5t76 -35t16 -84l-40 -172 q51 64 165 104q21 7 36.5 20.5t20.5 23.5l6 10l37 159q12 51 -14.5 93t-108.5 42q-75 0 -133.5 -37t-79.5 -85l-70 26q32 61 111 111.5t188 50.5q42 0 76.5 -8t57 -21.5t39 -31t25.5 -36t13 -38t4 -35t-3 -28.5zM449 53q24 0 45 16.5t26 40.5q6 24 -7 41t-37 17 q-23 0 -44 -17t-27 -41q-5 -24 8 -40.5t36 -16.5zM115 276q-5 -23 8 -40t37 -17t44.5 17t25.5 40q5 24 -7.5 41t-36.5 17t-45 -17t-26 -41z" />
<glyph unicode="&#xe0a;" horiz-adv-x="659" d="M451 475q-56 -90 -81 -152l-61 -264h93q7 0 9.5 1t6 6t5.5 16l79 341q2 8 -15.5 25.5t-35.5 26.5zM454 519q51 16 96.5 59t65.5 78l20 34l75 -43q-3 -5 -8 -12.5t-24.5 -29t-41.5 -39.5t-58.5 -37t-76.5 -28q21 -8 33 -13t33.5 -16t31 -21.5t7.5 -21.5l-80 -347 q-6 -24 -15 -40t-18 -24.5t-28.5 -12.5t-33 -4.5t-44.5 -0.5h-197l66 287q3 11 132 195q-9 28 -40 50.5t-59 22.5q-14 0 -30 -6q30 -13 43.5 -43t4.5 -67q-11 -49 -54.5 -84t-92.5 -35t-74.5 35.5t-14.5 85.5q16 72 83.5 122t148.5 50q55 0 93.5 -27t56.5 -67zM175 382 q25 0 45.5 16.5t25.5 40.5q6 24 -6.5 41t-37.5 17q-23 0 -44 -17t-27 -41q-5 -24 8 -40.5t36 -16.5z" />
<glyph unicode="&#xe0b;" horiz-adv-x="663" d="M468 466q-75 -118 -93 -160l-56 -247h90q6 0 9 1t6.5 6t6.5 16l79 342q1 7 -12 20.5t-30 21.5zM472 524q48 16 90.5 57.5t61.5 74.5l18 34l75 -43q-2 -5 -7 -12.5t-22 -29t-37 -39.5t-53 -37t-69 -28q17 -8 27 -13t27.5 -16t25 -21.5t5.5 -21.5l-80 -347q-6 -24 -15 -40 t-18 -24.5t-28 -12.5t-33 -4.5t-44 -0.5h-196l62 270q2 7 22 36t41.5 59t44 60t24.5 33q9 13 -2.5 51.5t-24.5 47.5l-73 -39l-65 42q-29 -20 -46 -40q13 3 27 3q50 0 76.5 -35t14.5 -84q-11 -49 -54 -84t-92 -35t-75.5 35t-15.5 84q32 149 173 217l67 -50q12 7 40 24.5 t41 24.5q74 -28 87 -96zM196 462q-23 0 -44 -17t-27 -41q-5 -24 8 -40.5t36 -16.5q24 0 45 16.5t26 40.5q6 24 -7 41t-37 17z" />
<glyph unicode="&#xe0c;" horiz-adv-x="960" d="M445 60l30 132q-15 1 -37.5 -20.5t-29.5 -57.5t4.5 -55t26.5 -19q1 0 6 20zM254 107q5 23 -8 40t-37 17t-44.5 -17t-25.5 -40q-6 -24 6.5 -41t36.5 -17t45 17t27 41zM633 426l-41 -180q50 -7 85 -54t49 -105l119 515h104l-123 -532q-11 -48 -37.5 -67t-99.5 -17 q-9 66 -40 127.5t-71 75.5l-31 -131q-8 -36 -43 -54t-78 -18q-48 0 -66.5 36t-9.5 90q10 59 48.5 96t90.5 42l40 175q2 10 3 22.5t-3.5 33t-15.5 36t-38 27t-66 11.5q-69 0 -118 -33.5t-60 -63.5l103 -18l-11 -47q-3 -1 -9 -3.5t-21.5 -12t-28.5 -21.5t-26 -32t-18 -44 l-12 -56q5 1 15 1q49 0 76 -34.5t16 -83.5q-12 -50 -55 -84.5t-92 -34.5t-76 35t-15 84l36 157q6 25 22 48.5t34.5 39.5t36.5 28t30 18l12 5l-141 19q3 8 10 21.5t33 48t58.5 61t90 48t124.5 21.5q55 0 96 -12.5t63 -32.5t35 -42.5t16 -46t2.5 -38.5t-2.5 -24z" />
<glyph unicode="&#xe0d;" horiz-adv-x="930" d="M714 -46l75 -13q-30 -84 -104 -131.5t-159 -49.5q-120 -3 -146 57q-12 29 -5 58q10 43 47 72.5t79 29.5t65 -29.5t13 -72.5q-8 -34 -34 -60q123 9 169 139zM465 -176q21 0 40.5 15t23.5 36q5 22 -7 37t-33 15t-40 -15t-24 -37q-5 -21 7 -36t33 -15zM244 107q5 23 -8 40 t-37 17t-44.5 -17t-25.5 -40q-6 -24 6.5 -41t36.5 -17t45 17t27 41zM537 57h157q6 0 9 1t6 6.5t6 17.5l120 520h104l-120 -520q-13 -57 -40.5 -69.5t-97.5 -12.5h-261l98 425q3 10 4 22.5t-3.5 32.5t-15.5 36t-38 27.5t-66 11.5q-69 0 -118 -33.5t-60 -63.5l103 -18l-11 -47 q-3 -1 -9 -3.5t-21.5 -12t-28.5 -21.5t-26 -32t-18 -44l-12 -56q5 1 15 1q49 0 76 -34.5t16 -83.5q-12 -50 -55 -84.5t-92 -34.5t-76 35t-15 84l36 157q6 25 22 48.5t34.5 39.5t36.5 28t30 18l12 5l-141 19q3 8 10 21.5t33 48t58.5 61t90 48t124.5 21.5q65 0 110.5 -18 t65.5 -43t28.5 -55t8 -49t-3.5 -31z" />
<glyph unicode="&#xe0e;" horiz-adv-x="716" d="M66 107q-6 -24 7 -41t37 -17t44.5 17t26.5 41q5 23 -7.5 40t-36.5 17t-45 -17t-26 -40zM437 -107l123 532q3 10 4 22.5t-3.5 32.5t-15.5 36t-38 27.5t-66 11.5q-69 0 -118 -33.5t-60 -63.5l127 -18l-11 -47q-3 -1 -9 -3.5t-21.5 -12t-28.5 -21.5t-26 -32t-18 -44 l-33 -173q-12 -49 -55 -84t-92 -35q-50 0 -76.5 35t-14.5 84q11 49 54 83.5t92 34.5q10 0 15 -1l3 40q6 25 22 48.5t34.5 39.5t36.5 28t30 18l12 5l-165 19q3 8 10 21.5t33 48t58.5 61t90 48t124.5 21.5q65 0 110.5 -18t65.5 -43t28.5 -55t8 -49t-3.5 -31l-122 -532 l-170 -128q-46 42 -95 64q-74 -67 -148 -67q-41 0 -67 29t-18 66q10 43 49 65t85 22q43 0 88 -26q13 22 33 66l72 -16q-28 -56 -49 -87l64 -31zM142 -180q33 0 83 44q-43 24 -60 24q-37 0 -44 -30q-3 -13 3.5 -25.5t17.5 -12.5z" />
<glyph unicode="&#xe0f;" horiz-adv-x="716" d="M66 107q-6 -24 7 -41t37 -17t44.5 17t26.5 41q5 23 -7.5 40t-36.5 17t-45 -17t-26 -40zM435 -119l125 544q2 8 2.5 17.5t0 26t-8 30.5t-19.5 27t-36.5 21t-57.5 8q-69 0 -118 -33.5t-60 -63.5l127 -18l-11 -47q-4 -1 -9.5 -3.5t-21.5 -12t-29 -21.5t-26 -32t-17 -44 l-33 -173q-10 -49 -54 -84t-93 -35q-50 0 -76.5 35t-14.5 84q11 49 54 83.5t92 34.5q10 0 15 -1l3 40q6 25 22 48.5t34.5 39.5t36.5 28t30 18l12 5l-165 19q3 8 10 21.5t33 48t58.5 61t90 48t124.5 21.5q65 0 110.5 -18t65.5 -43t28.5 -55t8 -49t-3.5 -31l-125 -544 l-156 -121l-47 69l-84 -68l-44 59q-24 -20 -38 -29.5t-37 -19t-46 -9.5q-41 0 -66.5 29t-17.5 67q10 42 49.5 64.5t85.5 22.5q32 0 62 -17q15 25 23 55l74 -12q-16 -48 -42 -90q5 -5 11 -11.5t10 -10.5l81 59l48 -60zM100 -180q26 0 65 48q-28 21 -41 21q-36 0 -44 -30 q-3 -15 3.5 -27t16.5 -12z" />
<glyph unicode="&#xe10;" horiz-adv-x="610" d="M382 -107l-28 -121l-113 -86l-56 47l-87 -52q-16 42 -26 56q-51 -55 -102 -55q-40 0 -65 27.5t-17 63.5q9 39 46.5 61.5t82.5 22.5q24 0 41 -7q4 9 23 66l73 -5q-24 -75 -38 -108l21 -43q5 3 65 40l49 -44l31 26l8 34h-12q-36 0 -56 22t-13 55t37.5 55t66.5 22t56 -22 t13 -55zM-18 -263q16 0 49 53q-13 11 -27 11q-35 0 -41 -28q-3 -13 2.5 -24.5t16.5 -11.5zM262 -107q-3 -14 4.5 -24t20.5 -10q15 0 28 10t16 24q4 14 -4.5 24t-23.5 10q-13 0 -25 -10t-16 -24zM353 622q27 0 57.5 -9t49.5 -16t46.5 -3t56.5 27l35 -63q-39 -30 -78.5 -37 t-67 2.5t-61 21t-54.5 11.5q-24 0 -53 -14t-49 -36q57 -3 103.5 -10.5t95 -24t71.5 -49t13 -77.5l-61 -263q-6 -24 -15.5 -40t-19 -24.5t-30.5 -12.5t-36 -4.5t-48 -0.5l-37 193q-34 -26 -74 -30t-70 15q-37 25 -38.5 72.5t31.5 89.5q35 43 85 55.5t88 -12.5q33 -21 38 -62 l29 -214l51 224q6 25 -1 44t-28 31.5t-46.5 20t-67.5 11.5t-79.5 5t-91.5 1q36 84 102.5 131t153.5 47zM170 231q18 -12 42 -5.5t40 26.5q17 21 17 44t-19 35q-18 12 -42.5 5.5t-41.5 -27.5q-16 -20 -15 -43t19 -35z" />
<glyph unicode="&#xe11;" horiz-adv-x="813" d="M375 306l-26 -111l255 414l13 2q45 0 77 -12.5t47.5 -31t22.5 -42.5t6.5 -44.5t-5.5 -40.5l-102 -440h-106l102 440q18 78 -20 105l-338 -545h-101l62 270q2 7 22 36t41.5 59t44 60t24.5 33q9 13 -2.5 51.5t-24.5 47.5l-73 -39l-65 42q-29 -20 -46 -40q13 3 27 3 q50 0 76.5 -35t14.5 -84q-11 -49 -54 -84t-92 -35t-75.5 35t-15.5 84q32 149 173 217l67 -50q12 7 40 24.5t41 24.5q41 -15 63.5 -43t24 -54.5t-1.5 -50.5q-79 -125 -96 -166zM196 462q-23 0 -44 -17t-27 -41q-5 -24 8 -40.5t36 -16.5q24 0 45 16.5t26 40.5q6 24 -7 41 t-37 17z" />
<glyph unicode="&#xe12;" horiz-adv-x="987" d="M316 348q-5 -24 8 -40.5t36 -16.5q24 0 45 16.5t26 40.5q6 24 -7 41t-37 17q-23 0 -44 -17t-27 -41zM514 242l41 177q5 22 6.5 36.5t-0.5 35t-15 35t-37 23.5l-99 -50l-74 47q-24 -7 -42 -19t-28 -23t-18 -29t-10.5 -27.5t-6.5 -28.5l-74 -318l155 133q-34 11 -50 42.5 t-7 71.5q12 50 54.5 84.5t91.5 34.5q50 0 76.5 -35t14.5 -84q-10 -46 -45 -77l-316 -271h-101l97 419q6 25 19.5 52t40 60t74.5 59t109 36l57 -55l85 54q47 -7 79.5 -26.5t47.5 -41.5t21 -49.5t4.5 -47.5t-5.5 -39l-42 -182q50 -7 85.5 -52t50.5 -100l119 515h104l-123 -532 q-11 -48 -37.5 -67t-99.5 -17q-10 63 -41.5 121.5t-72.5 71.5l-28 -121q-8 -36 -43 -54t-78 -18q-49 0 -68.5 35t-11.5 87q9 57 48 93t93 41zM472 60l28 122q-18 1 -41 -18.5t-29 -52.5q-7 -34 6.5 -52.5t29.5 -18.5q1 0 6 20z" />
<glyph unicode="&#xe13;" horiz-adv-x="993" d="M756 53q24 0 45 16.5t26 40.5q6 24 -7 41t-37 17q-23 0 -44 -17t-27 -41q-5 -24 8 -40.5t36 -16.5zM254 107q5 23 -8 40t-37 17t-44.5 -17t-25.5 -40q-6 -24 6.5 -41t36.5 -17t45 17t27 41zM632 426l-73 -322q57 66 165 104q21 7 36.5 20.5t21.5 23.5l5 10l79 340h104 l-77 -332q-6 -14 -52 -50q30 -14 43 -43.5t4 -66.5q-11 -49 -54 -84t-92 -35t-75.5 35t-15.5 84l2 9q-42 -20 -71.5 -49.5t-37.5 -49.5l-9 -20h-105l98 425q3 10 4 22.5t-3.5 32.5t-15.5 36t-38 27.5t-66 11.5q-69 0 -118 -33.5t-60 -63.5l103 -18l-11 -47q-3 -1 -9 -3.5 t-21.5 -12t-28.5 -21.5t-26 -32t-18 -44l-12 -56q5 1 15 1q49 0 76 -34.5t16 -83.5q-12 -50 -55 -84.5t-92 -34.5t-76 35t-15 84l36 157q6 25 22 48.5t34.5 39.5t36.5 28t30 18l12 5l-141 19q3 8 10 21.5t33 48t58.5 61t90 48t124.5 21.5q65 0 110.5 -18t65.5 -43t28.5 -55 t8 -49t-3.5 -31z" />
<glyph unicode="&#xe14;" horiz-adv-x="702" d="M437 622q48 0 86 -11t60.5 -28.5t39 -40t21.5 -44.5t7.5 -42.5t-2.5 -34.5l-97 -421h-104l97 420q7 20 2.5 44t-15 44.5t-39.5 34t-72 13.5q-79 0 -129 -43.5t-61 -92.5l-74 -319l155 133q-34 11 -50 42.5t-7 71.5q12 50 54.5 84.5t91.5 34.5q50 0 76.5 -35t14.5 -84 q-9 -42 -45 -77l-316 -271h-101l97 420q6 24 28 56t58.5 66t96 57t127.5 23zM316 348q-5 -24 8 -40.5t36 -16.5q24 0 45 16.5t26 40.5q6 24 -7 41t-37 17q-23 0 -44 -17t-27 -41z" />
<glyph unicode="&#xe15;" horiz-adv-x="702" d="M131 0h-101l97 419q4 19 12.5 39.5t27.5 48t44 50t65 42t89 27.5l57 -55l85 54q46 -7 78 -26.5t46 -41.5t19.5 -49.5t4 -47.5t-5.5 -39l-97 -421h-104l97 419q5 22 6.5 36.5t0 35t-13.5 35t-34 23.5l-99 -50l-74 47q-22 -7 -39.5 -19t-26.5 -22.5t-17 -29t-10.5 -28 t-6.5 -28.5l-74 -318l155 133q-34 11 -50 42.5t-7 71.5q12 50 54.5 84.5t91.5 34.5q50 0 76.5 -35t14.5 -84q-9 -42 -45 -77zM316 348q-5 -24 8 -40.5t36 -16.5q24 0 45 16.5t26 40.5q6 24 -7 41t-37 17q-23 0 -44 -17t-27 -41z" />
<glyph unicode="&#xe16;" horiz-adv-x="684" d="M254 107q5 23 -8 40t-37 17t-44.5 -17t-25.5 -40q-6 -24 6.5 -41t36.5 -17t45 17t27 41zM220 280l-12 -56q5 1 15 1q49 0 76 -34.5t16 -83.5q-12 -50 -55 -84.5t-92 -34.5t-76 35t-15 84l36 157q6 25 22 48.5t34.5 39.5t36.5 28t30 18l12 5l-141 19q3 8 10 21.5t33 48 t58.5 61t90 48t124.5 21.5q65 0 110.5 -18t65.5 -43t28.5 -55t8 -49t-3.5 -31l-98 -426h-104l98 425q3 10 4 22.5t-3.5 32.5t-15.5 36t-38 27.5t-66 11.5q-69 0 -118 -33.5t-60 -63.5l103 -18l-11 -47q-3 -1 -9 -3.5t-21.5 -12t-28.5 -21.5t-26 -32t-18 -44z" />
<glyph unicode="&#xe17;" horiz-adv-x="738" d="M124 0l87 376q-5 -1 -15 -1q-49 0 -76 34.5t-16 83.5q11 50 54 84.5t92 34.5t76 -35t16 -84l-69 -298l236 412h32q46 0 78 -12.5t47.5 -30.5t22 -43t6 -45t-5.5 -40l-101 -436h-106l101 436q20 86 -45 102l-310 -538h-104zM165 493q-5 -23 8 -40t37 -17t44.5 17t25.5 40 q5 24 -7.5 41t-36.5 17t-45 -17t-26 -41z" />
<glyph unicode="&#xe18;" horiz-adv-x="626" d="M555 343l-60 -261q-13 -57 -40.5 -69.5t-97.5 -12.5h-290l90 390h104l-77 -333h186q6 0 9 1t6.5 6.5t6.5 17.5l57 247q5 31 -8 52t-43 32t-62.5 16t-77.5 6q-23 1 -83 1t-84 2q37 83 105.5 133.5t160.5 50.5q33 0 68.5 -10t56.5 -17t52.5 0t66.5 36l31 -67 q-45 -32 -90 -39.5t-74.5 1t-66.5 20t-60 10.5q-66 -2 -109 -59q167 -7 234 -30q106 -37 89 -124z" />
<glyph unicode="&#xe19;" horiz-adv-x="716" d="M165 493q-5 -23 8 -40t37 -17t44.5 17t25.5 40q5 24 -7.5 41t-36.5 17t-45 -17t-26 -41zM376 119q-42 -20 -80 -49.5t-56 -49.5l-17 -20h-99l87 376q-5 -1 -15 -1q-49 0 -76 34.5t-16 83.5q11 50 54 84.5t92 34.5t76 -35t16 -84l-90 -391q82 66 195 106q21 7 36.5 20.5 t20.5 23.5l6 10l79 340h104l-77 -332q-6 -14 -52 -50q30 -14 43 -43.5t4 -66.5q-11 -49 -54 -84t-92 -35t-75.5 35t-15.5 84zM479 53q24 0 45 16.5t26 40.5q6 24 -7 41t-37 17q-23 0 -44 -17t-27 -41q-5 -24 8 -40.5t36 -16.5z" />
<glyph unicode="&#xe1a;" horiz-adv-x="740" d="M124 0l87 376q-5 -1 -15 -1q-49 0 -76 34.5t-16 83.5q11 50 54 84.5t92 34.5t76 -35t16 -84l-101 -436h243q6 0 9 1t6 6.5t6 17.5l120 520h104l-120 -520q-13 -57 -40.5 -69.5t-97.5 -12.5h-347zM165 493q-5 -23 8 -40t37 -17t44.5 17t25.5 40q5 24 -7.5 41t-36.5 17 t-45 -17t-26 -41z" />
<glyph unicode="&#xe1b;" horiz-adv-x="740" d="M124 0l87 376q-5 -1 -15 -1q-49 0 -76 34.5t-16 83.5q11 50 54 84.5t92 34.5t76 -35t16 -84l-101 -436h243q6 0 9 1t6 6.5t6 17.5l175 758h104l-175 -758q-13 -57 -40.5 -69.5t-97.5 -12.5h-347zM165 493q-5 -23 8 -40t37 -17t44.5 17t25.5 40q5 24 -7.5 41t-36.5 17 t-45 -17t-26 -41z" />
<glyph unicode="&#xe1c;" horiz-adv-x="689" d="M221 376l-60 -257l201 220l99 -221l112 484h105l-139 -602h-105l-97 228l-203 -228h-104l114 493q11 49 54 84t92 35q50 0 76.5 -35t15.5 -84t-54 -83.5t-92 -34.5q-10 0 -15 1zM321 493q5 24 -8 41t-37 17t-44.5 -17t-25.5 -41q-5 -23 7.5 -40t36.5 -17t45 17t26 40z " />
<glyph unicode="&#xe1d;" horiz-adv-x="689" d="M221 376l-60 -257l201 220l99 -221l167 722h105l-194 -840h-105l-97 228l-203 -228h-104l114 493q11 49 54 84t92 35q50 0 76.5 -35t15.5 -84t-54 -83.5t-92 -34.5q-10 0 -15 1zM321 493q5 24 -8 41t-37 17t-44.5 -17t-25.5 -41q-5 -23 7.5 -40t36.5 -17t45 17t26 40z " />
<glyph unicode="&#xe1e;" horiz-adv-x="796" d="M268 175l250 425h12l53 -423l98 425h104l-139 -602h-106l-53 436l-257 -436h-106l87 376q-5 -1 -15 -1q-49 0 -76 34.5t-16 83.5q11 50 54 84.5t92 34.5t76 -35t16 -84zM165 493q-5 -23 8 -40t37 -17t44.5 17t25.5 40q5 24 -7.5 41t-36.5 17t-45 -17t-26 -41z" />
<glyph unicode="&#xe1f;" horiz-adv-x="796" d="M268 175l250 425h12l53 -423l153 663h104l-194 -840h-106l-53 436l-257 -436h-106l87 376q-5 -1 -15 -1q-49 0 -76 34.5t-16 83.5q11 50 54 84.5t92 34.5t76 -35t16 -84zM165 493q-5 -23 8 -40t37 -17t44.5 17t25.5 40q5 24 -7.5 41t-36.5 17t-45 -17t-26 -41z" />
<glyph unicode="&#xe20;" horiz-adv-x="716" d="M166 224l3 40q6 25 22 48.5t34.5 39.5t36.5 28t30 18l12 5l-165 19q3 8 10 21.5t33 48t58.5 61t90 48t124.5 21.5q65 0 110.5 -18t65.5 -43t28.5 -55t8 -49t-3.5 -31l-98 -426h-104l98 425q3 10 4 22.5t-3.5 32.5t-15.5 36t-38 27.5t-66 11.5q-69 0 -118 -33.5t-60 -63.5 l127 -18l-11 -47q-3 -1 -9 -3.5t-21.5 -12t-28.5 -21.5t-26 -32t-18 -44l-33 -173q-12 -49 -55 -84t-92 -35q-50 0 -76.5 35t-14.5 84q11 49 54 83.5t92 34.5q10 0 15 -1zM66 107q-6 -24 7 -41t37 -17t44.5 17t26.5 41q5 23 -7.5 40t-36.5 17t-45 -17t-26 -40z" />
<glyph unicode="&#xe21;" horiz-adv-x="730" d="M616 602h103l-123 -532q-7 -32 -18.5 -49t-40 -26.5t-79.5 -8.5q-12 57 -57.5 123t-96.5 90l-33 -141q-8 -36 -43 -54t-78 -18q-59 0 -81.5 37.5t-13.5 94.5q10 62 53.5 100.5t106.5 43.5l27 114q-5 -1 -16 -1q-49 0 -76 34.5t-16 83.5q11 50 54 84.5t92 34.5t76 -35 t16 -84l-54 -234q60 -14 107 -69t70 -113zM169 60l33 142q-23 1 -46 -20.5t-32 -60.5q-8 -40 5 -59.5t34 -21.5q1 0 6 20zM195 493q-5 -23 8 -40t37 -17t44.5 17t25.5 40q5 24 -7.5 41t-36.5 17t-45 -17t-26 -41z" />
<glyph unicode="&#xe22;" horiz-adv-x="676" d="M403 0h-348l32 140q20 85 129 130q-31 7 -64.5 28.5t-37.5 50.5q-7 36 6 87q15 66 61 115.5t111 59.5q12 2 28 2q47 -2 72 -36.5t14 -82.5q-11 -49 -54 -84t-92 -35q-26 0 -45 10q-4 -17 -1 -29t15.5 -19.5t28.5 -12t38 -6.5t43.5 -2.5t45.5 -0.5h15l-13 -57 q-53 0 -97 -8q-31 -10 -59.5 -39t-35.5 -60l-22 -93h245q6 0 9 1t6.5 6.5t6.5 17.5l120 519h104l-120 -519q-6 -25 -15 -40.5t-18 -24.5t-28.5 -13t-34 -4.5t-45.5 -0.5zM274 437q24 0 45 16.5t26 40.5t-8 41t-37 17q-23 0 -44 -17t-26 -41t8 -40.5t36 -16.5z" />
<glyph unicode="&#xe23;" horiz-adv-x="567" d="M504 342l-54 -233q-11 -49 -54 -84t-92 -35q-50 0 -76.5 35t-15.5 84t54 83.5t92 34.5q10 0 15 -1l24 102q7 29 -1.5 51t-34 34.5t-49.5 20.5t-69.5 11t-72 3.5t-76.5 0.5h-10q36 83 102 128.5t155 45.5q27 0 57.5 -9t50 -16t47 -3t56.5 27l35 -58q-39 -30 -78.5 -37 t-66.5 2.5t-60.5 21t-54.5 11.5q-25 0 -55 -16t-52 -42q45 -2 82.5 -6.5t81 -15.5t71 -27.5t43 -45.5t6.5 -67zM273 109q-5 -24 8 -41t37 -17t44.5 17t25.5 41q5 23 -7.5 40t-36.5 17t-45 -17t-26 -40z" />
<glyph unicode="&#xe24;" horiz-adv-x="684" d="M254 107q5 23 -8 40t-37 17t-44.5 -17t-25.5 -40q-6 -24 6.5 -41t36.5 -17t45 17t27 41zM220 280l-12 -56q5 1 15 1q49 0 76 -34.5t16 -83.5q-12 -50 -55 -84.5t-92 -34.5t-76 35t-15 84l36 157q6 25 22 48.5t34.5 39.5t36.5 28t30 18l12 5l-141 19q3 8 10 21.5t33 48 t58.5 61t90 48t124.5 21.5q65 0 110.5 -18t65.5 -43t28.5 -55t8 -49t-3.5 -31l-153 -663h-104l153 662q3 10 4 22.5t-3.5 32.5t-15.5 36t-38 27.5t-66 11.5q-69 0 -118 -33.5t-60 -63.5l103 -18l-11 -47q-3 -1 -9 -3.5t-21.5 -12t-28.5 -21.5t-26 -32t-18 -44z" />
<glyph unicode="&#xe25;" horiz-adv-x="679" d="M67 109l34 148q4 17 14 38t31.5 48t48.5 48.5t70 36t92 13.5q108 -1 146 -102l19 83q12 51 -14.5 93t-108.5 42q-72 0 -127 -37t-75 -85l-71 25q31 61 107 111.5t181 50.5q48 0 86.5 -11t61 -28.5t39.5 -39t21.5 -43.5t7 -42t-2.5 -34l-98 -424h-104l32 140q4 15 3.5 51 t-7.5 83t-36 80t-77 31q-39 -2 -79 -33t-56 -100l-6 -26q5 1 14 1q49 0 76 -34.5t16 -83.5q-11 -50 -54 -84.5t-92 -34.5t-76 35t-16 84zM244 109q5 23 -8 40t-37 17t-44.5 -17t-25.5 -40q-5 -24 7.5 -41t36.5 -17t45 17t26 41z" />
<glyph unicode="&#xe26;" horiz-adv-x="716" d="M166 224l3 40q6 25 22 48.5t34.5 39.5t36.5 28t30 18l12 5l-165 19q3 8 10 21.5t33 48t58.5 61t90 48t124.5 21.5q65 0 110.5 -18t65.5 -43t28.5 -55t8 -49t-3.5 -31l-153 -663h-104l153 662q3 10 4 22.5t-3.5 32.5t-15.5 36t-38 27.5t-66 11.5q-69 0 -118 -33.5 t-60 -63.5l127 -18l-11 -47q-3 -1 -9 -3.5t-21.5 -12t-28.5 -21.5t-26 -32t-18 -44l-33 -173q-12 -49 -55 -84t-92 -35q-50 0 -76.5 35t-14.5 84q11 49 54 83.5t92 34.5q10 0 15 -1zM66 107q-6 -24 7 -41t37 -17t44.5 17t26.5 41q5 23 -7.5 40t-36.5 17t-45 -17t-26 -40z " />
<glyph unicode="&#xe27;" horiz-adv-x="607" d="M554 421l-72 -312q-11 -49 -54 -84t-92 -35q-50 0 -76.5 35t-15.5 84t54 83.5t92 34.5q10 0 15 -1l45 195q7 20 4.5 43.5t-10.5 44t-34 34t-67 13.5q-72 0 -125 -39.5t-74 -88.5l-69 25q33 65 104.5 117t179.5 52q47 0 84 -11t58 -29t34.5 -39.5t18 -45t4.5 -42t-4 -34.5 zM305 109q-5 -24 8 -41t37 -17t44.5 17t25.5 41q5 23 -7.5 40t-36.5 17t-45 -17t-26 -40z" />
<glyph unicode="&#xe28;" horiz-adv-x="702" d="M134 0h-104l98 423q6 24 27.5 55.5t57.5 65t95.5 56.5t128.5 23q64 0 110 -19q60 9 121 90l73 -44q-44 -61 -129 -94q52 -65 38 -132l-98 -424h-104l98 423q7 20 2.5 43.5t-15 43.5t-39.5 33.5t-72 13.5q-79 0 -129 -42.5t-61 -91.5l-52 -222q42 108 102 203 q49 63 119 63q50 0 76.5 -35t14.5 -84q-11 -49 -54 -84t-92 -35q-56 0 -82 45q-92 -169 -125 -252zM387 406q-23 0 -44 -17t-27 -41q-5 -24 8 -40.5t36 -16.5q24 0 45 16.5t26 40.5q6 24 -7 41t-37 17z" />
<glyph unicode="&#xe29;" horiz-adv-x="736" d="M723 410l58 -10q-31 -85 -132 -145l-40 -173q-13 -57 -40.5 -69.5t-97.5 -12.5h-347l87 376q-5 -1 -15 -1q-49 0 -76 34.5t-16 83.5q11 50 54 84.5t92 34.5t76 -35t16 -84l-101 -436h243q6 0 9 1t6 6.5t6 17.5l29 128q-32 -8 -56 -8q-122 -2 -146 57q-12 29 -5 58 q10 43 47 72.5t79 29.5t65 -29.5t13 -72.5q-8 -34 -34 -60q25 1 51 10l77 335h104l-64 -279q37 28 58 87zM165 493q-5 -23 8 -40t37 -17t44.5 17t25.5 40q5 24 -7.5 41t-36.5 17t-45 -17t-26 -41zM417 266q21 0 40.5 15t23.5 36q5 22 -7 37t-33 15t-40 -15t-24 -37 q-5 -21 7 -36t33 -15z" />
<glyph unicode="&#xe2a;" horiz-adv-x="681" d="M67 109l34 148q6 23 22 50.5t45 60t78.5 53.5t110.5 20q108 -1 146 -102l19 83q12 51 -14.5 93t-108.5 42q-72 0 -127 -37t-75 -85l-71 25q31 61 107 111.5t181 50.5q66 0 109 -18q62 9 123 85l73 -43q-43 -57 -129 -90q51 -64 37 -132l-98 -424h-104l32 140 q4 15 3.5 51.5t-7.5 84t-36.5 80.5t-77.5 29q-40 -3 -79 -34t-55 -99l-6 -26q5 1 14 1q49 0 76 -34.5t16 -83.5q-11 -50 -54 -84.5t-92 -34.5t-76 35t-16 84zM244 109q5 23 -8 40t-37 17t-44.5 -17t-25.5 -40q-5 -24 7.5 -41t36.5 -17t45 17t26 41z" />
<glyph unicode="&#xe2b;" horiz-adv-x="737" d="M566 459q22 0 41 14.5t24 35.5t-7.5 36t-34.5 15q-21 0 -40 -15t-23 -36q-5 -20 7 -35t33 -15zM342 493l-76 -330q128 206 217 255q-43 32 -28 92q10 43 53 73.5t94 30.5t80 -30.5t19 -73.5q-14 -62 -82 -99q50 -57 34 -124l-66 -287h-105l66 287q18 80 -10 108 q-44 -20 -121.5 -119t-132.5 -188l-56 -88h-103l86 376q-5 -1 -15 -1q-49 0 -76 34.5t-16 83.5q11 50 54 84.5t92 34.5t76 -35t16 -84zM165 493q-5 -23 8 -40t37 -17t44.5 17t25.5 40q5 24 -7.5 41t-36.5 17t-45 -17t-26 -41z" />
<glyph unicode="&#xe2c;" horiz-adv-x="790" d="M643 632q-23 0 -41 -17t-21 -32q-4 -17 4.5 -34t36.5 -17q24 0 40 16.5t20 32.5q3 15 -6 33t-33 18zM342 493l-75 -324l211 295h20l84 -295l73 316q-23 -6 -44 -6q-47 0 -80 29t-22 75q11 47 55.5 74.5t93.5 27.5q25 0 52 -12.5t36 -26.5q25 34 33 81l90 -20 q-1 -21 -30 -67.5t-75 -80.5q1 -4 1 -49l-118 -510h-107l-77 337l-235 -337h-104l87 376q-5 -1 -15 -1q-49 0 -76 34.5t-16 83.5q11 50 54 84.5t92 34.5t76 -35t16 -84zM165 493q-5 -23 8 -40t37 -17t44.5 17t25.5 40q5 24 -7.5 41t-36.5 17t-45 -17t-26 -41z" />
<glyph unicode="&#xe2d;" horiz-adv-x="690" d="M183 57h251q6 0 8.5 1t6 6.5t6.5 17.5l78 340q7 20 3 44t-14.5 44t-39.5 33.5t-72 13.5q-72 0 -128 -37.5t-76 -85.5l-70 26q31 61 107.5 111.5t181.5 50.5q42 0 76.5 -8t56.5 -21.5t39.5 -31t25.5 -36.5t13.5 -38t4 -35t-2.5 -28l-79 -342q-6 -24 -15 -40t-18 -24.5 t-28 -12.5t-33 -4.5t-44 -0.5h-355l68 293q11 49 54 84t92 35q50 0 76.5 -35t15.5 -84t-54.5 -83.5t-92.5 -34.5q-10 0 -14 1zM311 293q5 24 -8 41t-37 17t-44.5 -17t-25.5 -41q-6 -23 6.5 -40t36.5 -17t45 17t27 40z" />
<glyph unicode="&#xe2e;" horiz-adv-x="697" d="M374 481q70 1 133 43q-25 31 -108 33q-56 0 -108.5 -18t-54.5 -33q-1 -6 19 -12.5t53 -10t66 -2.5zM199 166l-24 -107h248q7 0 10 1t6.5 6t5.5 16l79 341q3 14 0 46q-72 -34 -158 -37q-59 -1 -99 1t-71 9.5t-43 22.5t-7 38q11 48 87 84t181 35q93 0 152 -42 q19 14 43.5 47.5t26.5 45.5l72 -41q-15 -36 -42.5 -66t-49.5 -46q21 -58 12 -96l-79 -342q-6 -24 -15 -40t-18 -24.5t-28.5 -12.5t-33.5 -4.5t-45 -0.5h-354l64 283q12 49 55 84t92 35q50 0 76.5 -35t14.5 -84q-11 -49 -54 -83.5t-92 -34.5q-7 0 -12 1zM296 283q6 24 -7 41 t-37 17t-44.5 -17t-26.5 -41q-5 -23 7.5 -40t36.5 -17t45 17t26 40z" />
<glyph unicode="&#xe2f;" horiz-adv-x="664" d="M313 386h-8q-31 0 -49 1t-45 6t-44 17.5t-26 33.5q-12 27 -5 58q10 43 46.5 72.5t78.5 29.5t65.5 -29.5t13.5 -72.5q-8 -34 -33 -59q80 0 137.5 39.5t82.5 115.5l1 4h104l-139 -602h-104l101 437q-85 -51 -177 -51zM226 451q21 0 40 15t24 36q5 22 -7 37t-33 15t-40 -15 t-24 -37q-5 -21 7 -36t33 -15z" />
<glyph unicode="&#xe30;" horiz-adv-x="592" d="M279 368h-33t-31.5 1.5t-36 5t-28 9.5t-28 16.5t-16.5 25.5q-11 27 -4 58q10 43 46.5 72.5t78.5 29.5t65.5 -29.5t13.5 -72.5q-8 -34 -33 -59q80 0 137 39.5t83 115.5l89 -15q-32 -87 -120.5 -142t-182.5 -55zM192 433q21 0 40 15t24 36q4 22 -7.5 37t-32.5 15 t-40.5 -15.5t-23.5 -36.5q-5 -21 7 -36t33 -15zM200 27h-33t-31.5 1.5t-35.5 5t-27.5 9.5t-28 16.5t-16.5 25.5q-12 29 -5 58q10 43 47 72.5t79 29.5t65 -29.5t13 -72.5q-8 -34 -33 -59q80 0 137.5 39.5t82.5 115.5l90 -15q-33 -87 -121.5 -142t-182.5 -55zM113 92 q21 0 40.5 15t23.5 36q5 22 -7 37t-33 15t-40 -15t-24 -37q-5 -21 7 -36t33 -15z" />
<glyph unicode="&#xe31;" d="M-59 709h-33t-31.5 1.5t-36 5t-28 9.5t-28 16.5t-16.5 25.5q-11 27 -5 58q10 43 47 72.5t79 29.5t65 -30t13 -72q-8 -35 -32 -59q80 0 137 39.5t83 115.5l89 -15q-33 -87 -121 -142t-182 -55zM-146 774q21 0 40 15t23 36q5 22 -7 37t-33 15t-40 -15t-24 -37q-4 -21 8 -36 t33 -15z" />
<glyph unicode="&#xe32;" horiz-adv-x="574" d="M141 428l-66 28q13 25 24 43t34 43.5t49 41t66 27.5t88 12q47 0 83 -10.5t56 -28.5t32.5 -39t16 -45t3 -42.5t-4.5 -34.5l-98 -423h-105l98 423q29 134 -96 134q-119 0 -180 -129z" />
<glyph unicode="&#xe33;" horiz-adv-x="574" d="M141 428l-66 28q13 25 24 43t34 43.5t49 41t66 27.5t88 12q47 0 83 -10.5t56 -28.5t32.5 -39t16 -45t3 -42.5t-4.5 -34.5l-98 -423h-105l98 423q29 134 -96 134q-119 0 -180 -129zM-38 935q50 0 76.5 -35t14.5 -84q-11 -49 -54 -84t-92 -35t-75.5 35t-15.5 84 q12 50 54.5 84.5t91.5 34.5zM-79 759q24 0 45 16.5t26 40.5q6 24 -7 41t-37 17q-23 0 -44 -17t-27 -41q-5 -24 8 -40.5t36 -16.5z" />
<glyph unicode="&#xe34;" d="M-496 692q36 92 112 147t172 55t166 -58t68 -161q-114 24 -180.5 33t-147.5 6t-190 -22zM-390 750q163 15 338 -15q-26 64 -90 87t-127 8q-77 -17 -121 -80z" />
<glyph unicode="&#xe35;" horiz-adv-x="9" d="M-503 695q36 92 112.5 147t172.5 55q102 0 170 -62l25 110h95l-57 -248q1 -6 1 -19q-114 24 -180.5 33t-148 6t-190.5 -22zM-396 753q162 15 337 -15q-26 64 -90 87t-127 8q-75 -17 -120 -80z" />
<glyph unicode="&#xe36;" horiz-adv-x="1" d="M10 966q43 0 65.5 -29.5t12.5 -72.5q-7 -32 -30 -57.5t-54 -37.5q19 -44 18 -94q-114 24 -180.5 33t-147.5 6t-190 -22q36 92 112 147t172 55q54 0 101 -19q13 39 47.5 65t73.5 26zM-25 816q21 0 38.5 13.5t21.5 34.5q5 20 -5.5 34.5t-31.5 14.5q-20 0 -37.5 -14.5 t-22.5 -34.5q-4 -21 6.5 -34.5t30.5 -13.5zM-390 750q163 15 338 -15q-26 64 -90 87t-127 8q-77 -17 -121 -80z" />
<glyph unicode="&#xe37;" horiz-adv-x="16" d="M-496 692q36 92 112 147t172 55q20 0 38 -3l11 51h95l-18 -79q23 -11 44 -31l25 110h95l-57 -248q1 -6 1 -19q-114 24 -180.5 33t-147.5 6t-190 -22zM-390 750q163 15 338 -15q-26 64 -90 87t-127 8q-77 -17 -121 -80z" />
<glyph unicode="&#xe38;" d="M-264 -70q42 0 66 -30t14 -72l-44 -190h-104l21 88q-43 0 -66 30t-13 72q10 43 46.5 72.5t79.5 29.5zM-299 -223q21 0 39.5 15t22.5 36q5 22 -6.5 37t-32.5 15q-22 0 -40.5 -15t-23.5 -37q-5 -21 7 -36t34 -15z" />
<glyph unicode="&#xe39;" d="M-395 -305h55q6 0 8.5 1t6 6.5t5.5 17.5l47 201h104l-47 -201q-13 -57 -40.5 -69.5t-97.5 -12.5h-159l21 88q-43 0 -66 30t-13 72q10 43 46.5 72.5t79.5 29.5q42 0 66 -30t14 -72zM-480 -223q21 0 39.5 15t22.5 36q5 22 -6.5 37t-32.5 15q-22 0 -40.5 -15t-23.5 -37 q-5 -21 7 -36t34 -15z" />
<glyph unicode="&#xe3a;" d="M-172 -146q-6 -28 -30.5 -48t-52.5 -20t-43.5 20t-9.5 48q7 28 31.5 48t52.5 20t43.5 -20t8.5 -48z" />
<glyph unicode="&#xe3f;" horiz-adv-x="644" d="M567 227q-26 -113 -103.5 -171t-181.5 -56l-21 -92h-90l21 92h-185l185 800h185l19 85h90l-20 -87q92 -6 129.5 -61.5t14.5 -153.5q-24 -103 -94 -159q84 -57 51 -197zM367 368l-64 -278q32 0 56 5t49 18.5t42.5 42t27.5 71.5q19 82 -11 111t-100 30zM181 368l-64 -278 h96l64 278h-96zM260 710l-58 -250h96l58 250h-96zM521 583q25 111 -76 125l-57 -247q107 12 133 122z" />
<glyph unicode="&#xe40;" horiz-adv-x="388" d="M199 603h104l-87 -377q5 1 15 1q49 0 76 -34.5t16 -83.5q-11 -50 -54 -84.5t-92 -34.5t-76 35t-16 84zM262 109q5 23 -8 40t-37 17t-44.5 -17t-25.5 -40q-5 -24 7.5 -41t36.5 -17t45 17t26 41z" />
<glyph unicode="&#xe41;" horiz-adv-x="658" d="M469 603h104l-87 -377q5 1 15 1q49 0 76 -34.5t16 -83.5q-11 -50 -54 -84.5t-92 -34.5t-76 35t-16 84zM532 109q5 23 -8 40t-37 17t-44.5 -17t-25.5 -40q-5 -24 7.5 -41t36.5 -17t45 17t26 41zM199 603h104l-87 -377q5 1 15 1q49 0 76 -34.5t16 -83.5q-11 -50 -54 -84.5 t-92 -34.5t-76 35t-16 84zM262 109q5 23 -8 40t-37 17t-44.5 -17t-25.5 -40q-5 -24 7.5 -41t36.5 -17t45 17t26 41z" />
<glyph unicode="&#xe42;" horiz-adv-x="431" d="M141 109l162 699q1 11 -3.5 20.5t-16 16.5t-22.5 12.5t-29 10t-28.5 7t-28 6t-21.5 4.5q95 132 229 124q26 -1 59 -11.5t54 -18t50 -1t57 34.5l34 -53q-49 -39 -100 -45t-98 14q-59 17 -78 19q-19 1 -44 -11t-39 -27q65 -21 100 -46t26 -66l-132 -572q5 1 15 1 q49 0 76 -34.5t16 -83.5q-11 -50 -54 -84.5t-92 -34.5t-76 35t-16 84zM318 109q5 23 -8 40t-37 17t-44.5 -17t-25.5 -40q-5 -24 7.5 -41t36.5 -17t45 17t26 41z" />
<glyph unicode="&#xe43;" horiz-adv-x="496" d="M203 109l125 536q40 52 64.5 102t36.5 123q4 31 -22.5 53t-63.5 22q-22 0 -50 -9.5t-42 -27.5q13 4 31 4q49 0 75.5 -34.5t15.5 -84.5q-11 -49 -54 -84t-92 -35q-48 0 -71.5 32.5t-22 77t20.5 90.5q23 54 79.5 92.5t123.5 38.5q75 0 125 -38t36 -97q-12 -53 -24.5 -86 t-32 -69.5t-27.5 -54.5l-100 -434q5 1 15 1q49 0 76 -34.5t16 -83.5q-11 -50 -54 -84.5t-92 -34.5t-76 35t-16 84zM380 109q5 23 -8 40t-37 17t-44.5 -17t-25.5 -40q-5 -24 7.5 -41t36.5 -17t45 17t26 41zM241 736q24 0 45 16.5t26 40.5t-8 41t-37 17q-23 0 -44 -17t-26 -41 t8 -40.5t36 -16.5z" />
<glyph unicode="&#xe44;" horiz-adv-x="456" d="M395 662l-101 -436q5 1 15 1q49 0 76 -34.5t16 -83.5q-11 -50 -54 -84.5t-92 -34.5t-76 35t-16 84l126 543q10 26 43 98.5t46.5 111.5t4.5 47l-121 -179h-71l-12 263l63 28l7 -220l137 200h27q15 0 25.5 -1.5t26.5 -6.5t22.5 -19t1.5 -36zM340 109q5 23 -8 40t-37 17 t-44.5 -17t-25.5 -40q-5 -24 7.5 -41t36.5 -17t45 17t26 41z" />
<glyph unicode="&#xe45;" horiz-adv-x="574" d="M149 418l-74 38q13 25 24 43t34 43.5t49 41t66 27.5t88 12q47 0 83 -10.5t56 -28.5t32.5 -39t16 -45t3 -42.5t-4.5 -34.5l-153 -661h-105l153 661q4 19 5.5 36t-2 37.5t-13 35.5t-31 25t-53.5 10q-111 0 -174 -149z" />
<glyph unicode="&#xe46;" horiz-adv-x="806" d="M371 472q50 0 76.5 -35t14.5 -84q-11 -49 -54 -84t-92 -35q-56 0 -80.5 42t-7.5 107q24 86 73 140t135 88l74 -70l104 70q70 -34 96 -76t13 -114l-121 -523q-14 -52 -231 -171l-23 59q22 11 84.5 55t68.5 66l114 496q12 46 8 77.5t-28 50.5l-101 -54l-74 55 q-7 -5 -14.5 -13.5t-20.5 -27t-14 -19.5zM357 411q-23 0 -44 -17t-27 -41q-5 -24 8 -40.5t36 -16.5q24 0 45 16.5t26 40.5q6 24 -7 41t-37 17z" />
<glyph unicode="&#xe47;" d="M-211 818q23 -2 61 -33q8 27 33.5 46t54.5 19t46.5 -20t11.5 -48q-7 -29 -35 -52.5t-63 -23.5q-28 0 -66 29t-57 29q-25 0 -41 -49h-59q-24 11 -40.5 43t-8.5 65q11 46 61.5 79.5t103.5 33.5q17 0 54 -3t58 -3q36 0 58 14.5t32 54.5l65 -26q-24 -56 -63.5 -76t-98.5 -20 q-18 0 -56 2t-62 2t-50 -16.5t-32 -41.5q-7 -30 14 -48q29 43 79 43zM-84 752q10 0 21 9t13 20q3 12 -3.5 21.5t-17.5 9.5t-22 -9t-14 -22q-2 -11 5 -20t18 -9z" />
<glyph unicode="&#xe48;" d="M77 1000h-95l42 181h95z" />
<glyph unicode="&#xe49;" d="M-55 1140q20 0 36.5 12.5t20.5 31.5t-6 32t-30 13q-19 0 -36 -13t-21 -32t6.5 -31.5t29.5 -12.5zM45 1184q-5 -49 -59 -122q67 6 129.5 62.5t89.5 138.5l64 -19q-11 -32 -29.5 -64t-53.5 -68.5t-78.5 -63.5t-108.5 -43.5t-141 -13.5l6 29q31 10 57.5 30.5t29.5 45.5 q-7 -2 -16 -2q-38 0 -58 26t-12 64q9 38 41 64t70 26q37 0 57.5 -26t11.5 -64z" />
<glyph unicode="&#xe4a;" d="M-239 1042q-2 21 5 48q10 48 44 93.5t94 73.5l56 -47q30 18 78 46q47 -22 59.5 -63t3.5 -79q-10 -31 -22 -59q36 11 67 83.5t32 115.5h66q-2 -17 -8 -42t-23.5 -64.5t-42 -72.5t-68 -60.5t-97.5 -35.5l-30 16q16 15 33 48.5t25 67.5q13 61 -9 88q-10 -5 -37 -19t-39 -20 l-57 39q-7 -5 -17.5 -20.5t-10.5 -23.5h11q38 0 57.5 -26t10.5 -63q-8 -37 -40.5 -64t-69.5 -27q-31 0 -50.5 19.5t-20.5 47.5zM-138 1104q-17 0 -31 -10.5t-18 -26.5q-4 -17 5 -29t26 -12q15 0 29 12t18 29q4 16 -5 26.5t-24 10.5z" />
<glyph unicode="&#xe4b;" d="M70 988h-94l19 82h-92l15 64h92l19 82h94l-19 -82h92l-15 -64h-92z" />
<glyph unicode="&#xe4c;" d="M213 1223l89 -21q-15 -37 -39 -63t-57.5 -42t-63.5 -25t-75 -18q28 -27 18 -65q-8 -37 -40.5 -62t-76.5 -25t-64.5 25t-10.5 63q19 86 140 109q67 13 110 38t70 86zM-21 944q17 -1 32.5 12t20.5 30q4 18 -5.5 30.5t-27.5 12.5q-17 0 -33 -12.5t-20 -29.5 q-4 -18 5.5 -30.5t27.5 -12.5z" />
<glyph unicode="&#xe4d;" d="M-38 935q50 0 76.5 -35t14.5 -84q-11 -49 -54 -84t-92 -35t-75.5 35t-15.5 84q12 50 54.5 84.5t91.5 34.5zM-79 759q24 0 45 16.5t26 40.5q6 24 -7 41t-37 17q-23 0 -44 -17t-27 -41q-5 -24 8 -40.5t36 -16.5z" />
<glyph unicode="&#xe4e;" horiz-adv-x="45" d="M41 908l3 -55q-39 -11 -86 -13q-61 2 -106.5 -10.5t-52.5 -40.5q-4 -19 15 -30t55 -11q27 0 85 14l2 -54q-56 -14 -100 -14q-28 0 -54 4t-51.5 13.5t-37.5 29.5t-6 48q14 58 104 88q-23 26 -17 56q21 91 147 91q22 0 58.5 -4.5t55.5 -4.5q46 0 124 44l-10 -52 q-59 -39 -138 -39q-21 0 -54.5 4.5t-49.5 4.5q-30 0 -40 -44q-4 -17 10.5 -27t29.5 -12t33 -2q29 0 81 16z" />
<glyph unicode="&#xe4f;" horiz-adv-x="664" d="M390 515q104 0 162 -69.5t36 -163.5q-22 -95 -113 -163t-192 -68q-103 0 -161 68.5t-36 163.5q22 96 113 164t191 68zM299 121q61 0 118 48.5t72 113.5q15 66 -20.5 113.5t-94.5 47.5q-60 0 -117 -48.5t-72 -112.5q-15 -67 20 -114.5t94 -47.5zM358 375q45 0 67.5 -27 t13.5 -65q-8 -39 -43 -65.5t-81 -26.5q-45 0 -67 26.5t-13 65.5q10 40 43.5 66t79.5 26z" />
<glyph unicode="&#xe50;" horiz-adv-x="772" d="M324 -8q-134 -1 -205.5 65t-43.5 189q29 124 130 189t237 65q135 0 206 -65.5t43 -188.5q-29 -122 -131.5 -190.5t-235.5 -63.5zM428 437q-92 1 -160.5 -47t-90.5 -144t24.5 -143.5t138.5 -47.5q91 0 158 47t90 144q22 96 -24 144t-136 47z" />
<glyph unicode="&#xe51;" horiz-adv-x="772" d="M319 73q-38 9 -57 41.5t-9 74.5q11 49 53.5 84t91.5 35q50 0 76.5 -35t15.5 -84q-18 -71 -74.5 -132t-143.5 -61q-126 0 -179.5 63.5t-25.5 183.5q29 126 129.5 192t245.5 66q138 0 211.5 -64t43.5 -194q-11 -49 -31.5 -92t-40 -71.5t-54 -61.5t-56.5 -50t-64 -48l-38 62 q77 52 118.5 111t62.5 150q45 195 -167 195q-213 0 -258 -195q-42 -184 118 -184q26 0 32 14zM357 132q24 0 45 16.5t27 40.5q5 24 -8 41t-37 17q-23 0 -44 -17t-26 -41q-6 -24 7 -40.5t36 -16.5z" />
<glyph unicode="&#xe52;" horiz-adv-x="770" d="M331 325q32 16 64 16q49 0 75.5 -34.5t15.5 -84.5q-11 -49 -54 -83.5t-92 -34.5q-41 0 -71.5 17.5t-41.5 45.5q-15 34 13 159q20 84 61.5 130.5t124.5 46.5q16 0 31.5 -10.5t22.5 -20t18 -25.5q56 56 98 56q38 0 65 -10.5t40.5 -27.5t18.5 -43t3 -53t-10 -61l-37 -160 q-11 -59 -77.5 -105t-129.5 -43h-335q-27 0 -39 0.5t-29 2.5t-23 7t-12 14.5t-5.5 23.5t5.5 35l107 460q6 25 -10.5 45t-43.5 29l48 93q57 -22 88 -66t23 -89l-108 -467q-2 -19 0 -22t10 -3h340q26 0 54 26t35 59l38 164q14 82 7 104q-7 24 -37 24q-10 0 -24 -15.5t-30 -39 t-19 -27.5h-63q-2 4 -7 27.5t-12 39t-15 15.5q-53 0 -81 -115zM354 165q24 0 45 16.5t26 40.5q6 24 -7 41t-37 17q-23 0 -44 -17t-27 -41q-5 -24 8 -40.5t36 -16.5z" />
<glyph unicode="&#xe53;" horiz-adv-x="772" d="M561 500q54 0 89 -22t47.5 -57.5t14 -80.5t-11.5 -91q-17 -74 -52.5 -133t-108.5 -128l-39 64q39 42 60.5 85.5t36.5 111.5q45 188 -50 188q-24 0 -56 -50q-8 -11 -14.5 -26t-9.5 -24l-3 -9l-31 -132h-103l31 132q6 34 -1 59q-9 50 -42 50q-104 0 -148 -188 q-6 -33 -7 -37q30 16 62 16q49 0 75.5 -34.5t15.5 -84.5q-11 -49 -54 -84t-92 -35q-47 0 -78 22t-40 57q-11 62 16 180q25 110 89.5 180.5t174.5 70.5q74 0 109 -44q50 44 120 44zM211 167q-23 0 -44 -17t-27 -41q-5 -24 8 -40.5t36 -16.5q24 0 45 16.5t26 40.5q6 24 -7 41 t-37 17z" />
<glyph unicode="&#xe54;" horiz-adv-x="771" d="M270 193q-6 23 0 51q12 50 54.5 84.5t91.5 34.5q50 0 76.5 -35t14.5 -84q-8 -36 -35.5 -66t-63.5 -44q38 -36 85 -52.5t74 -16.5h77l-15 -65h-313q-153 0 -226 58t-42 194q26 114 130.5 178t251.5 64h159q52 0 90 51t60 133h102q-24 -102 -96 -174.5t-170 -72.5h-159 q-102 0 -173 -45t-92 -134q-7 -40 -8.5 -69.5t10 -50.5t26 -34.5t40 -21t52 -10.5t60.5 -3h45q-89 55 -106 130zM375 187q24 0 45 16.5t26 40.5q6 24 -7 41t-37 17q-23 0 -44 -17t-27 -41q-5 -24 8 -40.5t36 -16.5z" />
<glyph unicode="&#xe55;" horiz-adv-x="771" d="M521 671q50 0 76.5 -35t14.5 -84q-5 -28 -28 -58h5q53 0 92 51.5t58 132.5h102q-24 -101 -96.5 -174t-169.5 -73h-159q-100 0 -172 -45t-93 -134q-7 -40 -8.5 -69.5t10 -50.5t26 -34.5t40 -21t52 -10.5t60.5 -3h45q-89 55 -106 130q-6 23 0 51q12 50 54.5 84.5t91.5 34.5 q50 0 76.5 -35t14.5 -84q-8 -36 -35.5 -66t-63.5 -44q38 -36 85 -52.5t74 -16.5h77l-15 -65h-313q-153 0 -226 58t-42 194q23 100 112.5 163t212.5 77h5q-11 26 -3 60q12 50 54.5 84.5t91.5 34.5zM480 495q24 0 45 16.5t26 40.5q6 24 -7 41t-37 17q-23 0 -44 -17t-27 -41 q-5 -24 8 -40.5t36 -16.5zM375 187q24 0 45 16.5t26 40.5q6 24 -7 41t-37 17q-23 0 -44 -17t-27 -41q-5 -24 8 -40.5t36 -16.5z" />
<glyph unicode="&#xe56;" horiz-adv-x="774" d="M282 61q26 -8 52 -8q96 0 164.5 49t89.5 140q23 101 -14 148t-132 47q-52 0 -111.5 -23.5t-68.5 -60.5h-93l11 44q2 9 11 43q9 40 10 72.5t-8 64.5t-38.5 50t-77.5 17l42 73q114 -12 151.5 -76.5t15.5 -177.5q82 37 170 37q145 0 203.5 -69.5t31.5 -188.5 q-28 -121 -128.5 -186.5t-242.5 -65.5q-107 0 -160 45t-34 128q11 49 53.5 84t91.5 35q50 0 76.5 -35t15.5 -84q-16 -67 -81 -102zM230 106q24 0 45 16.5t27 40.5q5 24 -8 41t-37 17q-23 0 -44 -17t-26 -41q-6 -24 7 -40.5t36 -16.5z" />
<glyph unicode="&#xe57;" horiz-adv-x="785" d="M876 672l38 -57q-79 -49 -120 -225q-58 -250 -171 -345q-15 -13 -31 -23t-32.5 -15.5t-29.5 -9t-29 -5t-24 -2t-21 -0.5l-14 1h-23l-15 41q81 120 106 228q9 38 12.5 62.5t3 54t-13.5 44.5t-39 15q-28 0 -54 -49.5t-35 -86.5l-7 -30h-83l7 30q4 17 6 45.5t-5 59.5t-26 31 q-88 0 -131 -187q-4 -20 -5 -27.5t2 -10.5q30 16 61 16q50 0 76.5 -35t15.5 -84t-54.5 -84t-92.5 -35q-47 0 -78 21t-39 56q-15 66 11 183q59 250 248 250q44 0 85 -62q64 62 112 62q56 0 89 -20.5t42 -58t7 -74.5t-13 -86q-17 -73 -73 -190q64 23 97 96t67 224 q44 191 173 282zM189 166q-23 0 -44 -17t-26 -41t8 -40.5t36 -16.5q24 0 45 16.5t26 40.5t-8 41t-37 17z" />
<glyph unicode="&#xe58;" horiz-adv-x="771" d="M691 228q-8 -37 -22 -73t-37 -75.5t-59.5 -64t-79.5 -24.5q-14 0 -26 2.5t-22.5 9t-17.5 11.5t-17 18t-14.5 19t-16 24t-16.5 25q-6 10 -14.5 19t-14 13.5t-7.5 4.5q-11 0 -23.5 -21t-14.5 -42q-3 -7 0 -22.5t4 -20t6.5 -19.5t7.5 -21h-59q-120 0 -164 68t-17 184 q26 114 132 181.5t242 67.5h158q49 0 92.5 53t58.5 116l100 -6q-20 -86 -97.5 -156t-168.5 -70h-158q-90 0 -162.5 -47.5t-93.5 -138.5q-31 -136 25 -172q0 4 0.5 7.5t1.5 7.5t1 6q10 43 49.5 75.5t93.5 32.5q27 0 46.5 -11.5t27.5 -22t23 -36.5q3 -5 5 -8 q25 -37 38.5 -52.5t25.5 -15.5q28 0 48 56l-11 -1q-49 0 -75 35t-15 84t53.5 84t91.5 35q50 0 76.5 -35t15.5 -84zM558 171q24 0 45 16.5t27 40.5q5 24 -8 41t-37 17q-23 0 -44 -17t-26 -41q-6 -24 7 -40.5t36 -16.5z" />
<glyph unicode="&#xe59;" horiz-adv-x="770" d="M531 408q-14 -5 -27.5 -27.5t-19.5 -54.5q-10 -58 20 -132.5t70 -107.5q14 -11 30.5 -19.5t26.5 -11.5l10 -3l-30 -69q-166 37 -211 284q-7 33 -14 56.5t-18.5 49.5t-28 40t-37.5 14q-104 0 -145 -179q-10 -42 -10 -68q46 51 108 51q50 0 76.5 -35t15.5 -84t-54.5 -84 t-92.5 -35q-48 0 -82 24t-48.5 61.5t-19 82.5t7.5 87q12 51 31.5 93t50 77.5t76 55t101.5 19.5q90 0 123 -114q25 54 50.5 89t52.5 34q24 -1 44 -19.5t30 -41t20.5 -41t19.5 -18.5q35 0 71.5 102.5t34.5 165.5l94 7q-11 -62 -25.5 -114.5t-40 -111t-64.5 -92t-88 -33.5 q-26 0 -43.5 16t-24.5 35t-17 35t-23 16zM241 170q-23 0 -44 -17t-26 -41q-6 -24 7 -40.5t37 -16.5t44.5 16.5t26.5 40.5q5 24 -8 41t-37 17z" />
<glyph unicode="&#xe5a;" horiz-adv-x="822" d="M695 602h105l-139 -602h-105zM313 386h-8q-31 0 -49 1t-45 6t-44 17.5t-26 33.5q-12 27 -5 58q10 43 46.5 72.5t78.5 29.5t65.5 -29.5t13.5 -72.5q-8 -34 -33 -59q80 0 137.5 39.5t82.5 115.5l1 4h104l-139 -602h-104l101 437q-85 -51 -177 -51zM226 451q21 0 40 15 t24 36q5 22 -7 37t-33 15t-40 -15t-24 -37q-5 -21 7 -36t33 -15z" />
<glyph unicode="&#xe5b;" horiz-adv-x="1026" d="M738 324l-75 -82l-25 69q-8 -11 -36.5 -50.5t-39.5 -56.5l-16 104l-72 -120l-29 105q-40 -96 -103 -151t-130 -55q-71 0 -105.5 63t-14.5 164q23 99 77.5 160t120.5 61q54 0 78 -43t8 -109q-11 -48 -43.5 -90.5t-77.5 -42.5q-32 0 -46.5 24t-6.5 61q9 35 34.5 60t57.5 25 q16 0 23 -4q3 28 -8.5 43.5t-32.5 15.5q-36 0 -69 -41t-48 -105q-19 -81 0.5 -131.5t66.5 -50.5q57 0 112 69.5t80 177.5l4 16l8 39l40 -21l29 -103l80 138l22 -121l60 85l30 -83q5 6 11.5 12.5t14 13.5t11.5 11h96q75 -3 124 13l5 -14q-51 -40 -139 -56h-76zM246 335 q-4 -17 1.5 -29.5t16.5 -12.5q13 0 23.5 12t14.5 30q5 18 -0.5 30t-18.5 12q-11 0 -21.5 -12.5t-15.5 -29.5z" />
<glyph unicode="&#x2013;" horiz-adv-x="587" d="M509 354l-16 -70h-387l16 70h387z" />
<glyph unicode="&#x2014;" horiz-adv-x="745" d="M667 354l-16 -70h-545l16 70h545z" />
<glyph unicode="&#x2018;" horiz-adv-x="321" d="M174 603q13 -33 51 -33q28 0 52 19t31 47q7 29 -8 48.5t-44 19.5q-2 0 5.5 13.5t23.5 34t35 34.5l2 28q-60 -27 -99.5 -69.5t-49.5 -84.5q-7 -35 1 -57z" />
<glyph unicode="&#x2019;" horiz-adv-x="321" d="M326 779q8 -22 1 -57q-10 -42 -49.5 -84.5t-99.5 -69.5l2 28q19 14 35.5 34.5t24 34t5.5 13.5q-29 0 -44.5 19.5t-8.5 48.5q7 28 31 47t52 19q38 0 51 -33z" />
<glyph unicode="&#x201c;" horiz-adv-x="488" d="M191 602q12 -33 50 -33q29 0 53 19t31 47q7 29 -8.5 48.5t-44.5 19.5q-2 0 5.5 13.5t24 34t35.5 34.5l2 28q-60 -28 -100 -70.5t-49 -83.5q-7 -35 1 -57zM361 602q12 -33 50 -33q29 0 53 19t31 47q7 29 -8.5 48.5t-44.5 19.5q-2 0 5.5 13.5t24 34t35.5 34.5l2 28 q-60 -28 -100 -70.5t-49 -83.5q-7 -35 1 -57z" />
<glyph unicode="&#x201d;" horiz-adv-x="480" d="M476 728q-12 33 -50 33q-29 0 -53 -19t-31 -47q-7 -29 8.5 -48.5t44.5 -19.5q2 0 -5.5 -13.5t-24 -34t-35.5 -34.5l-2 -28q60 28 100 70.5t49 83.5q8 32 -1 57zM306 728q-12 33 -50 33q-29 0 -53 -19t-31 -47q-7 -29 8.5 -48.5t44.5 -19.5q2 0 -5.5 -13.5t-24 -34 t-35.5 -34.5l-2 -28q60 28 100 70.5t49 83.5q8 32 -1 57z" />
<glyph unicode="&#x2022;" horiz-adv-x="425" d="M351 329q-12 -52 -56 -87.5t-94 -35.5q-52 0 -79.5 35.5t-15.5 87.5q11 50 55 85.5t96 35.5q50 0 77.5 -35.5t16.5 -85.5z" />
<glyph unicode="&#x2026;" horiz-adv-x="780" d="M578 131q25 0 41.5 -20.5t10.5 -46.5q-7 -27 -32.5 -47.5t-50.5 -20.5q-27 0 -43 20.5t-9 47.5q6 26 31.5 46.5t51.5 20.5zM348 131q25 0 41.5 -20.5t10.5 -46.5q-7 -27 -32.5 -47.5t-50.5 -20.5q-27 0 -43 20.5t-9 47.5q6 26 31.5 46.5t51.5 20.5zM118 131 q25 0 41.5 -20.5t10.5 -46.5q-7 -27 -32.5 -47.5t-50.5 -20.5q-27 0 -43 20.5t-9 47.5q6 26 31.5 46.5t51.5 20.5z" />
<glyph unicode="&#x20ac;" horiz-adv-x="770" d="M545 524l-21 -90h-259l-7 -30q-1 -7 -4 -19.5t-3 -14.5h258l-20 -90h-244q3 -59 28 -109q41 -89 129 -89q44 0 96 32t102 89l66 -47q-67 -78 -141.5 -121t-143.5 -43q-66 0 -115.5 34t-77.5 92q-32 69 -34 162h-69l20 90h55l8 34q3 13 8 30h-56l21 90h68q43 91 111 164 q122 125 251 125q68 0 122.5 -42t85.5 -118l-88 -46q-21 53 -57 85t-84 32q-86 0 -170 -90q-45 -46 -79 -110h244z" />
<glyph unicode="&#x25fc;" horiz-adv-x="625" d="M0 625h625v-625h-625v625z" />
<glyph unicode="&#xee0d;" horiz-adv-x="950" d="M244 107q5 23 -8 40t-37 17t-44.5 -17t-25.5 -40q-6 -24 6.5 -41t36.5 -17t45 17t27 41zM537 57h157q6 0 9 1t6 6.5t6 17.5l120 520h104l-120 -520q-13 -57 -40.5 -69.5t-97.5 -12.5h-261l98 425q3 10 4 22.5t-3.5 32.5t-15.5 36t-38 27.5t-66 11.5q-69 0 -118 -33.5 t-60 -63.5l103 -18l-11 -47q-3 -1 -9 -3.5t-21.5 -12t-28.5 -21.5t-26 -32t-18 -44l-12 -56q5 1 15 1q49 0 76 -34.5t16 -83.5q-12 -50 -55 -84.5t-92 -34.5t-76 35t-15 84l36 157q6 25 22 48.5t34.5 39.5t36.5 28t30 18l12 5l-141 19q3 8 10 21.5t33 48t58.5 61t90 48 t124.5 21.5q65 0 110.5 -18t65.5 -43t28.5 -55t8 -49t-3.5 -31z" />
<glyph unicode="&#xee10;" horiz-adv-x="587" d="M353 622q27 0 57.5 -9t49.5 -16t46.5 -3t56.5 27l35 -63q-39 -30 -78.5 -37t-67 2.5t-61 21t-54.5 11.5q-24 0 -53 -14t-49 -36q57 -3 103.5 -10.5t95 -24t71.5 -49t13 -77.5l-61 -263q-6 -24 -15.5 -40t-19 -24.5t-30.5 -12.5t-36 -4.5t-48 -0.5l-37 193 q-34 -26 -74 -30t-70 15q-37 25 -38.5 72.5t31.5 89.5q35 43 85 55.5t88 -12.5q33 -21 38 -62l29 -214l51 224q6 25 -1 44t-28 31.5t-46.5 20t-67.5 11.5t-79.5 5t-91.5 1q36 84 102.5 131t153.5 47zM170 231q18 -12 42 -5.5t40 26.5q17 21 17 44t-19 35q-18 12 -42.5 5.5 t-41.5 -27.5q-16 -20 -15 -43t19 -35z" />
<glyph unicode="&#xee31;" d="M-229 709h-33t-31.5 1.5t-36 5t-28 9.5t-28 16.5t-16.5 25.5q-11 27 -5 58q10 43 47 72.5t79 29.5t65 -30t13 -72q-8 -35 -32 -59q80 0 137 39.5t83 115.5l89 -15q-33 -87 -121 -142t-182 -55zM-316 774q21 0 40 15t23 36q5 22 -7 37t-33 15t-40 -15t-24 -37 q-4 -21 8 -36t33 -15z" />
<glyph unicode="&#xee33;" horiz-adv-x="539" d="M-229 977q49 0 75.5 -34.5t15.5 -84.5q-11 -49 -54 -84t-92 -35t-75.5 35t-15.5 84t54 84t92 35zM-270 801q24 0 45 16.5t26 40.5t-8 41t-37 17q-23 0 -44 -17t-26 -41t8 -40.5t36 -16.5zM130 428l-66 28q13 25 24 43t34 43.5t49 41t66 27.5t88 12q47 0 83 -10.5 t56 -28.5t32.5 -39t16 -45t3 -42.5t-4.5 -34.5l-98 -423h-105l98 423q29 134 -96 134q-119 0 -180 -129z" />
<glyph unicode="&#xee34;" d="M-636 692q36 92 112 147t172 55t166 -58t68 -161q-114 24 -180.5 33t-147.5 6t-190 -22zM-530 750q163 15 338 -15q-26 64 -90 87t-127 8q-77 -17 -121 -80z" />
<glyph unicode="&#xee35;" horiz-adv-x="6" d="M-663 695q36 92 112.5 147t172.5 55q102 0 170 -62l25 110h95l-57 -248q1 -6 1 -19q-114 24 -180.5 33t-148 6t-190.5 -22zM-556 753q162 15 337 -15q-26 64 -90 87t-127 8q-75 -17 -120 -80z" />
<glyph unicode="&#xee36;" horiz-adv-x="1" d="M-150 966q43 0 65.5 -29.5t12.5 -72.5q-7 -32 -30 -57.5t-54 -37.5q19 -44 18 -94q-114 24 -180.5 33t-147.5 6t-190 -22q36 92 112 147t172 55q54 0 101 -19q13 39 47.5 65t73.5 26zM-185 816q21 0 38.5 13.5t21.5 34.5q5 20 -5.5 34.5t-31.5 14.5q-20 0 -37.5 -14.5 t-22.5 -34.5q-4 -21 6.5 -34.5t30.5 -13.5zM-550 750q163 15 338 -15q-26 64 -90 87t-127 8q-77 -17 -121 -80z" />
<glyph unicode="&#xee37;" horiz-adv-x="16" d="M-656 692q36 92 112 147t172 55q20 0 38 -3l11 51h95l-18 -79q23 -11 44 -31l25 110h95l-57 -248q1 -6 1 -19q-114 24 -180.5 33t-147.5 6t-190 -22zM-550 750q163 15 338 -15q-26 64 -90 87t-127 8q-77 -17 -121 -80z" />
<glyph unicode="&#xee38;" d="M-319 -260q42 0 66 -30t14 -72l-43 -190h-104l20 88q-43 0 -66 30t-13 72q11 43 47 72.5t79 29.5zM-354 -413q21 0 39.5 15t22.5 36q5 22 -6.5 37t-32.5 15q-22 0 -40.5 -15t-23.5 -37q-5 -21 7 -36t34 -15z" />
<glyph unicode="&#xee39;" horiz-adv-x="49" d="M-439 -495h55q6 0 8.5 1t6 6.5t5.5 17.5l47 201h104l-47 -201q-5 -24 -14 -40t-18 -24.5t-28 -12.5t-32.5 -4.5t-44.5 -0.5h-159l20 88q-43 0 -66 30t-13 72q11 43 47 72.5t79 29.5q42 0 66 -30t14 -72zM-524 -413q21 0 39.5 15t22.5 36q5 22 -6.5 37t-32.5 15 q-22 0 -40.5 -15t-23.5 -37q-5 -21 7 -36t34 -15z" />
<glyph unicode="&#xee3a;" horiz-adv-x="43" d="M-242 -326q-7 -28 -31.5 -48t-52.5 -20t-43.5 20t-8.5 48q6 28 30.5 48t52.5 20t43.5 -20t9.5 -48z" />
<glyph unicode="&#xee47;" d="M-331 818q23 -2 61 -33q8 27 33.5 46t54.5 19t46.5 -20t11.5 -48q-7 -29 -35 -52.5t-63 -23.5q-28 0 -66 29t-57 29q-25 0 -41 -49h-59q-24 11 -40.5 43t-8.5 65q11 46 61.5 79.5t103.5 33.5q17 0 54 -3t58 -3q36 0 58 14.5t32 54.5l65 -26q-24 -56 -63.5 -76t-98.5 -20 q-18 0 -56 2t-62 2t-50 -16.5t-32 -41.5q-7 -30 14 -48q29 43 79 43zM-204 752q10 0 21 9t13 20q3 12 -3.5 21.5t-17.5 9.5t-22 -9t-14 -22q-2 -11 5 -20t18 -9z" />
<glyph unicode="&#xee48;" d="M11 701h-104l53 229h104z" />
<glyph unicode="&#xee49;" d="M106 979l87 -27q-9 -24 -28.5 -54t-58.5 -69t-88 -68.5t-123 -47t-157 -9.5l6 27q65 16 88 60q-4 -1 -10 -1q-42 0 -65 30t-13 72t46.5 72t78.5 30t65.5 -30t13.5 -72q-9 -39 -68 -120q86 14 143.5 74.5t82.5 132.5zM-142 944q-22 0 -40.5 -15t-23.5 -37q-5 -21 6.5 -36 t33.5 -15q21 0 39.5 15t23.5 36q5 22 -6.5 37t-32.5 15z" />
<glyph unicode="&#xee4a;" horiz-adv-x="1" d="M-314 752q-2 21 5 48q10 48 44 93.5t94 73.5l56 -47q30 18 78 46q47 -22 59.5 -63t3.5 -79q-7 -21 -19 -45q22 17 40.5 62t25.5 74t10 49h66l-2 -10q-2 -9 -5.5 -21.5t-9 -31t-14.5 -37.5t-20.5 -40t-28.5 -40.5t-36.5 -37.5t-46 -33t-56.5 -24l-30 16q16 15 33 48.5 t26 67.5q12 61 -10 88q-10 -5 -37 -19t-39 -20l-57 39q-7 -5 -17.5 -20.5t-10.5 -23.5h11q38 0 57.5 -26t10.5 -63q-8 -37 -40.5 -64t-69.5 -27q-31 0 -50.5 19.5t-20.5 47.5zM-213 814q-17 0 -31 -10.5t-18 -26.5q-4 -17 5 -29t26 -12q15 0 29 12t18 29q4 16 -5 26.5 t-24 10.5z" />
<glyph unicode="&#xee4b;" d="M9 705h-104l19 82h-82l17 74h82l19 82h104l-19 -82h82l-17 -74h-82z" />
<glyph unicode="&#xee4c;" d="M155 1018l88 -21q-15 -37 -38.5 -63t-57 -42t-63.5 -25t-75 -18q27 -25 18 -65q-8 -37 -40.5 -62t-76.5 -25t-64.5 25t-11.5 63q20 86 140 109q67 13 110.5 38t70.5 86zM-79 739q17 -1 32.5 12t19.5 30q4 18 -5.5 30.5t-27.5 12.5q-17 0 -32.5 -12.5t-19.5 -29.5 q-4 -18 5.5 -30.5t27.5 -12.5z" />
<glyph unicode="&#xee4d;" d="M11 1125q50 0 76.5 -35t15.5 -84t-54.5 -84t-92.5 -35t-75 35t-15 84t53.5 84t91.5 35zM-30 949q24 0 45 16.5t27 40.5q5 24 -8 41t-37 17q-23 0 -44 -17t-26 -41q-6 -24 7 -40.5t36 -16.5z" />
<glyph unicode="&#xf0e48;" d="M-157 740h-104l50 218h104z" />
<glyph unicode="&#xf0e49;" d="M-31 1039l87 -27q-9 -24 -28.5 -54t-58.5 -69t-88 -68.5t-123.5 -47t-157.5 -9.5l7 27q27 7 52 22.5t35 37.5q-3 -1 -9 -1q-42 0 -65 30t-13 72t46.5 72t78.5 30t65.5 -30t13.5 -72q-9 -39 -68 -120q86 14 143 74t83 133zM-279 1004q-22 0 -41 -15t-23 -37 q-5 -21 6.5 -36t33.5 -15q21 0 39.5 15t23.5 36q5 22 -6.5 37t-32.5 15z" />
<glyph unicode="&#xf0e4a;" d="M-456 845q-1 17 5 48q27 115 139 167l56 -47q26 16 77 46q47 -22 59.5 -62.5t4.5 -79.5q-19 -52 -23 -59q36 11 67 83.5t32 115.5h66q-1 -16 -7 -42t-23.5 -64.5t-42 -72t-68 -61t-97.5 -35.5l-31 16q38 35 59 116q13 60 -10 88q-66 -35 -76 -39l-57 39q-7 -5 -17 -20.5 t-11 -23.5h11q37 0 57 -25.5t12 -63.5q-9 -37 -41 -64t-69 -27q-31 0 -50.5 19.5t-21.5 47.5zM-355 907q-17 0 -30.5 -10.5t-17.5 -26.5q-4 -17 5 -29t25 -12q15 0 29.5 12t18.5 29q4 15 -5.5 26t-24.5 11z" />
<glyph unicode="&#xf0e4b;" d="M-172 795h-94l18 82h-92l18 74h92l18 82h94l-18 -82h92l-18 -74h-92z" />
<glyph unicode="&#xf0e4c;" d="M11 1081l88 -21q-15 -37 -39 -63t-57.5 -42t-63.5 -25t-74 -18q26 -26 18 -65q-9 -37 -42 -62t-76 -25q-44 0 -64.5 25t-10.5 63q19 86 140 109q67 13 110.5 38t70.5 86zM-224 802q17 -1 33 12t20 30q4 18 -5.5 30.5t-27.5 12.5q-17 0 -33 -12.5t-20 -29.5 q-4 -18 5.5 -30.5t27.5 -12.5z" />
<glyph unicode="&#xf0e4d;" d="M-218 977q49 0 75.5 -34.5t15.5 -84.5q-11 -49 -54 -84t-92 -35t-75.5 35t-15.5 84t54 84t92 35zM-259 801q24 0 45 16.5t26 40.5t-8 41t-37 17q-23 0 -44 -17t-26 -41t8 -40.5t36 -16.5z" />
<glyph unicode="&#xfee48;" d="M-76 1010h-95l42 181h95z" />
<glyph unicode="&#xfee49;" d="M-162 1150q20 0 37 12.5t21 31.5t-7 32t-30 13t-35.5 -13t-20.5 -32t6 -31.5t29 -12.5zM-61 1194q-6 -53 -60 -122q67 6 129.5 62.5t89.5 138.5l65 -19q-11 -32 -29.5 -64t-53.5 -68.5t-78.5 -63.5t-109 -43.5t-141.5 -13.5l7 29q31 10 57 30.5t29 45.5q-7 -2 -16 -2 q-38 0 -58 26t-11 64q8 38 40 64t70 26q36 0 57 -26t13 -64z" />
<glyph unicode="&#xfee4a;" d="M-388 1048q-2 21 5 48q27 115 139 167l56 -47q26 16 77 46q47 -22 59.5 -62.5t4.5 -79.5q-19 -52 -23 -59q36 11 67 83.5t32 115.5h66q-2 -24 -13 -58t-35.5 -83t-74.5 -87t-116 -47l-30 16q16 15 33 48.5t26 67.5q12 61 -10 88q-8 -4 -35.5 -18.5t-40.5 -20.5l-57 39 q-7 -5 -17 -20.5t-11 -23.5h11q38 0 57.5 -26t10.5 -63q-8 -37 -40.5 -64t-69.5 -27q-31 0 -50.5 19.5t-20.5 47.5zM-287 1110q-17 0 -30.5 -10.5t-17.5 -26.5q-4 -17 4.5 -29t25.5 -12q15 0 29.5 12t18.5 29q4 15 -5.5 26t-24.5 11z" />
<glyph unicode="&#xfee4b;" d="M-79 1008h-94l19 82h-92l14 64h92l19 82h94l-19 -82h92l-14 -64h-92z" />
<glyph unicode="&#xfee4c;" d="M126 1235l88 -21q-15 -37 -38.5 -63t-57 -42t-63.5 -25t-75 -18q27 -25 18 -65q-8 -37 -40.5 -62t-76.5 -25t-64.5 25t-11.5 63q20 86 140 109q68 13 111 38t70 86zM-108 956q17 -1 32.5 12t19.5 30q4 18 -5.5 30.5t-27.5 12.5q-17 0 -32.5 -12.5t-19.5 -29.5 q-4 -18 5.5 -30.5t27.5 -12.5z" />
<glyph unicode="&#xfee4d;" d="M-65 1120q49 0 75.5 -34.5t15.5 -84.5q-11 -49 -54 -84t-92 -35t-75.5 35t-15.5 84t54 84t92 35zM-106 944q24 0 45 16.5t26 40.5t-8 41t-37 17q-23 0 -44 -17t-26 -41t8 -40.5t36 -16.5z" />
</font>
</defs>
</svg>
